<svg width="2490" height="947" viewBox="0 0 2490 947" fill="none" xmlns="http://www.w3.org/2000/svg"><path d="M2461.57 549.525H2450.74V549.525C2448.5 549.525 2446.68 551.343 2446.68 553.586V797.864C2446.68 800.948 2444.18 803.448 2441.09 803.448V803.448C2438.01 803.448 2435.51 800.948 2435.51 797.864V641.796C2435.51 636.273 2431.03 631.796 2425.51 631.796H2415.05C2409.53 631.796 2405.05 636.273 2405.05 641.796V651.59C2405.05 657.113 2400.57 661.59 2395.05 661.59H2329.07C2324.86 661.59 2321.45 665 2321.45 669.207V673.441C2321.45 675.31 2319.94 676.825 2318.07 676.825V676.825C2316.2 676.825 2314.68 678.34 2314.68 680.21V734.553C2314.68 739.133 2310.97 742.845 2306.39 742.845V742.845C2301.81 742.845 2298.1 746.558 2298.1 751.137V787.354C2298.1 792.877 2293.62 797.354 2288.1 797.354H2287.11C2281.59 797.354 2277.11 801.831 2277.11 807.354V860.329C2277.11 862.385 2275.45 864.052 2273.39 864.052V864.052C2271.33 864.052 2269.67 862.385 2269.67 860.329V553.248C2269.67 551.566 2268.3 550.202 2266.62 550.202V550.202C2264.94 550.202 2263.57 548.838 2263.57 547.156V520.237C2263.57 517.34 2261.23 514.991 2258.33 514.991V514.991C2255.43 514.991 2253.08 512.642 2253.08 509.745V483.673C2253.08 481.71 2251.49 480.119 2249.53 480.119V480.119C2247.57 480.119 2245.98 478.528 2245.98 476.565V455.247C2245.98 449.724 2241.5 445.247 2235.98 445.247H2210.62C2205.1 445.247 2200.62 449.724 2200.62 455.247V476.565C2200.62 478.528 2199.03 480.119 2197.07 480.119V480.119C2195.11 480.119 2193.51 481.71 2193.51 483.673V509.745C2193.51 512.642 2191.17 514.991 2188.27 514.991V514.991C2185.37 514.991 2183.02 517.34 2183.02 520.237V547.325C2183.02 548.727 2181.89 549.863 2180.48 549.863V549.863C2179.08 549.863 2177.95 551 2177.95 552.402V761.638C2177.95 764.909 2175.29 767.561 2172.02 767.561V767.561C2168.75 767.561 2166.1 770.212 2166.1 773.484V856.775C2166.1 860.794 2162.84 864.052 2158.82 864.052H2152.22C2151.85 864.052 2151.55 863.748 2151.55 863.374V863.374C2151.55 863 2151.24 862.697 2150.87 862.697H2148.67C2148.02 862.697 2147.49 862.167 2147.49 861.512V861.512C2147.49 860.858 2148.02 860.327 2148.67 860.327H2149.85C2150.79 860.327 2151.55 859.569 2151.55 858.635V858.635C2151.55 857.7 2150.79 856.942 2149.85 856.942H2148.84C2148.09 856.942 2147.49 856.335 2147.49 855.587V855.587C2147.49 854.84 2148.09 854.233 2148.84 854.233H2149.85C2150.79 854.233 2151.55 853.475 2151.55 852.54V852.54C2151.55 851.605 2150.79 850.848 2149.85 850.848H2148.67C2148.02 850.848 2147.49 850.317 2147.49 849.663V849.663C2147.49 849.008 2148.02 848.478 2148.67 848.478H2149.85C2150.79 848.478 2151.55 847.72 2151.55 846.785V846.785C2151.55 845.85 2150.79 845.092 2149.85 845.092H2148.67C2148.02 845.092 2147.49 844.561 2147.49 843.907V843.907C2147.49 843.253 2148.02 842.722 2148.67 842.722H2149.85C2150.79 842.722 2151.55 841.964 2151.55 841.029V841.029C2151.55 840.094 2150.79 839.336 2149.85 839.336H2148.67C2148.02 839.336 2147.49 838.806 2147.49 838.151V838.151C2147.49 837.497 2148.02 836.966 2148.67 836.966H2149.85C2150.79 836.966 2151.55 836.208 2151.55 835.274V835.274C2151.55 834.339 2150.79 833.581 2149.85 833.581H2148.67C2148.02 833.581 2147.49 833.05 2147.49 832.396V832.396C2147.49 831.741 2148.02 831.211 2148.67 831.211H2149.85C2150.79 831.211 2151.55 830.453 2151.55 829.518V829.518C2151.55 828.583 2150.79 827.825 2149.85 827.825H2148.67C2148.02 827.825 2147.49 827.295 2147.49 826.64V826.64C2147.49 825.986 2148.02 825.455 2148.67 825.455H2149.85C2150.79 825.455 2151.55 824.697 2151.55 823.762V823.762C2151.55 822.827 2150.79 822.07 2149.85 822.07H2148.67C2148.02 822.07 2147.49 821.539 2147.49 820.885V820.885C2147.49 820.23 2148.02 819.7 2148.67 819.7H2149.85C2150.79 819.7 2151.55 818.942 2151.55 818.007V818.007C2151.55 817.072 2150.79 816.314 2149.85 816.314H2148.67C2148.02 816.314 2147.49 815.783 2147.49 815.129V815.129C2147.49 814.475 2148.02 813.944 2148.67 813.944H2149.85C2150.79 813.944 2151.55 813.186 2151.55 812.251V812.251C2151.55 811.316 2150.79 810.558 2149.85 810.558H2148.67C2148.02 810.558 2147.49 810.028 2147.49 809.373V809.373C2147.49 808.719 2148.02 808.188 2148.67 808.188H2149.85C2150.79 808.188 2151.55 807.43 2151.55 806.496V806.496C2151.55 805.561 2150.79 804.803 2149.85 804.803H2149.52C2148.39 804.803 2147.49 803.894 2147.49 802.772V802.094C2147.49 800.972 2148.39 800.063 2149.52 800.063H2149.85C2150.79 800.063 2151.55 799.305 2151.55 798.37V798.37C2151.55 797.435 2150.79 796.677 2149.85 796.677H2148.67C2148.02 796.677 2147.49 796.147 2147.49 795.492V795.492C2147.49 794.838 2148.02 794.307 2148.67 794.307H2149.85C2150.79 794.307 2151.55 793.549 2151.55 792.614V792.614C2151.55 791.679 2150.79 790.922 2149.85 790.922H2148.67C2148.02 790.922 2147.49 790.391 2147.49 789.737V789.737C2147.49 789.082 2148.02 788.552 2148.67 788.552H2149.85C2150.79 788.552 2151.55 787.794 2151.55 786.859V786.859C2151.55 785.924 2150.79 785.166 2149.85 785.166H2148.67C2148.02 785.166 2147.49 784.635 2147.49 783.981V783.981C2147.49 783.327 2148.02 782.796 2148.67 782.796H2149.85C2150.79 782.796 2151.55 782.038 2151.55 781.103V781.103C2151.55 780.168 2150.79 779.41 2149.85 779.41H2148.67C2148.02 779.41 2147.49 778.88 2147.49 778.225V778.225C2147.49 777.571 2148.02 777.04 2148.67 777.04H2149.85C2150.79 777.04 2151.55 776.282 2151.55 775.348V775.348C2151.55 774.413 2150.79 773.655 2149.85 773.655H2148.67C2148.02 773.655 2147.49 773.124 2147.49 772.47V772.47C2147.49 771.815 2148.02 771.285 2148.67 771.285H2149.85C2150.79 771.285 2151.55 770.527 2151.55 769.592V769.592C2151.55 768.657 2150.79 767.899 2149.85 767.899H2148.67C2148.02 767.899 2147.49 767.369 2147.49 766.714V766.714C2147.49 766.06 2148.02 765.529 2148.67 765.529H2149.85C2150.79 765.529 2151.55 764.771 2151.55 763.836V763.836C2151.55 762.901 2150.79 762.144 2149.85 762.144H2148.67C2148.02 762.144 2147.49 761.613 2147.49 760.959V760.959C2147.49 760.304 2148.02 759.774 2148.67 759.774H2149.85C2150.79 759.774 2151.55 759.016 2151.55 758.081V758.081C2151.55 757.146 2150.79 756.388 2149.85 756.388H2148.67C2148.02 756.388 2147.49 755.857 2147.49 755.203V755.203C2147.49 754.549 2148.02 754.018 2148.67 754.018H2149.85C2150.79 754.018 2151.55 753.26 2151.55 752.325V752.325C2151.55 751.39 2150.79 750.632 2149.85 750.632H2148.67C2148.02 750.632 2147.49 750.102 2147.49 749.447V749.447C2147.49 748.793 2148.02 748.262 2148.67 748.262H2149.85C2150.79 748.262 2151.55 747.504 2151.55 746.57V746.57C2151.55 745.635 2150.79 744.877 2149.85 744.877H2148.67C2148.02 744.877 2147.49 744.346 2147.49 743.692V743.692C2147.49 743.037 2148.02 742.507 2148.67 742.507H2149.85C2150.79 742.507 2151.55 741.749 2151.55 740.814V740.814C2151.55 739.879 2150.79 739.121 2149.85 739.121H2148.67C2148.02 739.121 2147.49 738.591 2147.49 737.936V737.936C2147.49 737.282 2148.02 736.751 2148.67 736.751H2149.85C2150.79 736.751 2151.55 735.993 2151.55 735.058V735.058C2151.55 734.123 2150.79 733.366 2149.85 733.366H2148.67C2148.02 733.366 2147.49 732.835 2147.49 732.181V732.181C2147.49 731.526 2148.02 730.996 2148.67 730.996H2149.85C2150.79 730.996 2151.55 730.238 2151.55 729.303V729.303C2151.55 728.368 2150.79 727.61 2149.85 727.61H2149.52C2148.39 727.61 2147.49 726.701 2147.49 725.579V724.224C2147.49 723.102 2148.39 722.193 2149.52 722.193H2149.85C2150.79 722.193 2151.55 721.435 2151.55 720.5V720.5C2151.55 719.565 2150.79 718.807 2149.85 718.807H2148.67C2148.02 718.807 2147.49 718.277 2147.49 717.622V717.622C2147.49 716.968 2148.02 716.437 2148.67 716.437H2149.85C2150.79 716.437 2151.55 715.679 2151.55 714.744V714.744C2151.55 713.81 2150.79 713.052 2149.85 713.052H2148.67C2148.02 713.052 2147.49 712.521 2147.49 711.867V711.867C2147.49 711.212 2148.02 710.682 2148.67 710.682H2149.85C2150.79 710.682 2151.55 709.924 2151.55 708.989V708.989C2151.55 708.054 2150.79 707.296 2149.85 707.296H2148.67C2148.02 707.296 2147.49 706.765 2147.49 706.111V706.111C2147.49 705.457 2148.02 704.926 2148.67 704.926H2149.85C2150.79 704.926 2151.55 704.168 2151.55 703.233V703.233C2151.55 702.298 2150.79 701.54 2149.85 701.54H2149.52C2148.39 701.54 2147.49 700.631 2147.49 699.51V697.308C2147.49 696.467 2146.8 695.785 2145.96 695.785V695.785C2145.12 695.785 2144.44 695.103 2144.44 694.262V692.061C2144.44 690.004 2142.77 688.336 2140.71 688.336H2140.38C2138.13 688.336 2136.32 686.518 2136.32 684.275V673.438C2136.32 671.756 2134.95 670.392 2133.27 670.392V670.392C2131.59 670.392 2130.22 669.029 2130.22 667.346V655.761C2130.22 651.06 2126.95 646.994 2122.36 645.991L2111.61 643.646V643.646C2109.03 643.051 2107.21 640.758 2107.21 638.114V606.572C2107.21 605.918 2106.68 605.388 2106.02 605.388V605.388C2105.37 605.388 2104.84 605.918 2104.84 606.572V638.473C2104.84 640.429 2103.02 641.879 2101.12 641.445V641.445C2099.21 641.012 2097.39 642.461 2097.39 644.417V667.854C2097.39 669.256 2096.26 670.392 2094.86 670.392V670.392C2093.45 670.392 2092.32 671.529 2092.32 672.931V684.275C2092.32 686.518 2090.5 688.336 2088.26 688.336H2087.41C2085.63 688.336 2084.19 689.776 2084.19 691.553V693.246C2084.19 694.087 2083.51 694.769 2082.67 694.769V694.769C2081.83 694.769 2081.15 695.451 2081.15 696.292V697.647C2081.15 699.236 2079.86 700.525 2078.27 700.525H2048.5C2042.98 700.525 2038.5 705.002 2038.5 710.525V728.105C2038.5 733.628 2034.03 738.105 2028.5 738.105H2003.83C2002.59 738.105 2001.36 738.337 2000.2 738.788L1969.8 750.632V750.632C1968.78 751.041 1968.11 752.031 1968.11 753.132V764.853C1968.11 766.348 1969.32 767.561 1970.81 767.561H1971.49C1972.61 767.561 1973.52 768.47 1973.52 769.592V769.592C1973.52 770.714 1972.61 771.623 1971.49 771.623H1970.14C1969.01 771.623 1968.11 772.533 1968.11 773.655V773.655C1968.11 774.777 1969.01 775.686 1970.14 775.686H1971.49C1972.61 775.686 1973.52 776.596 1973.52 777.718V777.718C1973.52 778.839 1972.61 779.749 1971.49 779.749H1970.14C1969.01 779.749 1968.11 780.658 1968.11 781.78V781.78C1968.11 782.902 1969.01 783.812 1970.14 783.812H1971.49C1972.61 783.812 1973.52 784.721 1973.52 785.843V785.843C1973.52 786.965 1972.61 787.874 1971.49 787.874H1970.14C1969.01 787.874 1968.11 788.784 1968.11 789.906V789.906C1968.11 791.028 1969.01 791.937 1970.14 791.937H1971.49C1972.61 791.937 1973.52 792.847 1973.52 793.969V793.969C1973.52 795.091 1972.61 796 1971.49 796H1970.14C1969.01 796 1968.11 796.91 1968.11 798.031V798.031C1968.11 799.153 1969.01 800.063 1970.14 800.063H1972C1972.84 800.063 1973.52 800.745 1973.52 801.586V801.586C1973.52 802.428 1972.84 803.11 1972 803.11H1941.22C1937.04 803.11 1933.3 800.507 1931.84 796.585L1923.79 774.855C1922.39 771.076 1917.04 771.082 1915.65 774.865V774.865C1913.95 779.477 1906.83 778.154 1906.84 773.24C1906.85 769.879 1906.85 766.519 1906.85 763.159C1906.85 758.419 1906.85 753.679 1906.85 748.939C1906.85 735.397 1906.85 721.854 1906.51 708.312C1906.51 702.556 1906.17 696.462 1906.17 690.706C1905.83 678.179 1905.49 665.652 1904.81 652.787C1904.48 646.693 1904.48 640.599 1904.14 634.504C1903.46 622.655 1903.12 611.144 1902.45 599.294C1902.45 597.939 1902.11 596.585 1902.11 595.231C1901.43 584.735 1900.75 574.578 1900.08 564.083C1898.72 545.123 1897.03 526.164 1895.34 507.204C1895.21 505.475 1895.05 503.701 1894.87 501.915C1894.34 496.695 1889.92 492.646 1884.67 492.646H1821.25C1816.4 492.646 1812.08 496.256 1812.08 501.11V501.11C1811.74 505.173 1811.4 509.235 1811.06 513.298C1810.72 516.684 1810.39 520.408 1810.05 523.794C1809.37 530.226 1809.03 536.659 1808.36 543.092C1808.02 546.139 1808.02 548.848 1807.68 551.895C1807.34 557.312 1807 562.729 1806.32 568.146C1805.99 570.516 1805.99 572.886 1805.99 574.917C1805.65 582.027 1804.97 589.137 1804.63 595.908C1804.63 598.278 1804.29 600.648 1804.29 603.018C1803.96 610.466 1803.62 617.576 1803.28 625.025C1803.28 626.718 1802.94 628.072 1802.94 629.765C1802.6 636.536 1802.26 643.646 1801.92 650.417C1801.92 651.771 1801.92 653.126 1801.92 654.48C1801.59 662.267 1801.25 670.054 1801.25 677.841C1801.25 679.534 1801.25 680.888 1801.25 682.581C1800.91 690.706 1800.91 698.832 1800.57 706.619V707.635C1800.57 715.76 1800.23 723.886 1800.23 731.673C1800.23 732.688 1800.23 733.704 1800.23 734.72C1800.23 742.845 1800.23 750.971 1800.23 759.096C1800.23 760.112 1800.23 761.466 1800.23 762.482C1800.23 764.894 1800.23 767.307 1800.23 769.763C1800.23 773.782 1796.97 777.04 1792.96 777.04V777.04C1788.94 777.04 1785.68 780.298 1785.68 784.317V865.578C1785.68 870.345 1781.81 874.208 1777.05 874.208H1769.26C1768.8 874.208 1768.42 873.83 1768.42 873.362V873.362C1768.42 872.895 1768.8 872.516 1769.26 872.516H1769.94C1770.78 872.516 1771.46 871.834 1771.46 870.993V870.315C1771.46 869.473 1770.78 868.792 1769.94 868.792V868.792C1769.1 868.792 1768.42 868.11 1768.42 867.268V865.913C1768.42 865.072 1769.1 864.39 1769.94 864.39V864.39C1770.78 864.39 1771.46 863.708 1771.46 862.867V862.189C1771.46 861.348 1770.78 860.666 1769.94 860.666V860.666C1769.1 860.666 1768.42 859.984 1768.42 859.143V857.449C1768.42 856.608 1769.1 855.926 1769.94 855.926V855.926C1770.78 855.926 1771.46 855.244 1771.46 854.403V853.725C1771.46 852.884 1770.78 852.202 1769.94 852.202V852.202C1769.1 852.202 1768.42 851.52 1768.42 850.679V848.985C1768.42 848.144 1769.1 847.462 1769.94 847.462V847.462C1770.78 847.462 1771.46 846.78 1771.46 845.939V845.261C1771.46 844.42 1770.78 843.738 1769.94 843.738V843.738C1769.1 843.738 1768.42 843.056 1768.42 842.215V840.521C1768.42 839.68 1769.1 838.998 1769.94 838.998V838.998C1770.78 838.998 1771.46 838.316 1771.46 837.475V836.797C1771.46 835.955 1770.78 835.274 1769.94 835.274V835.274C1769.1 835.274 1768.42 834.592 1768.42 833.75V832.057C1768.42 831.216 1769.1 830.534 1769.94 830.534V830.534C1770.78 830.534 1771.46 829.852 1771.46 829.011V828.332C1771.46 827.491 1770.78 826.809 1769.94 826.809V826.809C1769.1 826.809 1768.42 826.128 1768.42 825.286V823.593C1768.42 822.751 1769.1 822.07 1769.94 822.07V822.07C1770.78 822.07 1771.46 821.388 1771.46 820.546V819.868C1771.46 819.027 1770.78 818.345 1769.94 818.345V818.345C1769.1 818.345 1768.42 817.663 1768.42 816.822V815.128C1768.42 814.287 1769.1 813.605 1769.94 813.605V813.605C1770.78 813.605 1771.46 812.924 1771.46 812.082V811.404C1771.46 810.563 1770.78 809.881 1769.94 809.881V809.881C1769.1 809.881 1768.42 809.199 1768.42 808.358V806.664C1768.42 805.823 1769.1 805.141 1769.94 805.141V805.141C1770.78 805.141 1771.46 804.459 1771.46 803.618V802.94C1771.46 802.099 1770.78 801.417 1769.94 801.417V801.417C1769.1 801.417 1768.42 800.735 1768.42 799.894V798.2C1768.42 797.359 1769.1 796.677 1769.94 796.677V796.677C1770.78 796.677 1771.46 795.995 1771.46 795.154V794.476C1771.46 793.635 1770.78 792.953 1769.94 792.953V792.953C1769.1 792.953 1768.42 792.271 1768.42 791.43V789.736C1768.42 788.895 1769.1 788.213 1769.94 788.213V788.213C1770.78 788.213 1771.46 787.531 1771.46 786.69V784.658C1771.46 783.816 1770.78 783.135 1769.94 783.135V783.135C1769.1 783.135 1768.42 782.453 1768.42 781.611V779.918C1768.42 779.077 1769.1 778.395 1769.94 778.395V778.395C1770.78 778.395 1771.46 777.713 1771.46 776.872V776.194C1771.46 775.352 1770.78 774.67 1769.94 774.67V774.67C1769.1 774.67 1768.42 773.989 1768.42 773.147V771.115C1768.42 770.274 1769.1 769.592 1769.94 769.592V769.592C1770.78 769.592 1771.46 768.91 1771.46 768.069V767.391C1771.46 766.55 1770.78 765.868 1769.94 765.868V765.868C1769.1 765.868 1768.42 765.186 1768.42 764.345V762.651C1768.42 761.81 1769.1 761.128 1769.94 761.128V761.128C1770.78 761.128 1771.46 760.446 1771.46 759.605V758.927C1771.46 758.086 1770.78 757.404 1769.94 757.404V757.404C1769.1 757.404 1768.42 756.722 1768.42 755.881V754.187C1768.42 753.346 1769.1 752.664 1769.94 752.664V752.664C1770.78 752.664 1771.46 751.982 1771.46 751.141V750.463C1771.46 749.621 1770.78 748.939 1769.94 748.939V748.939C1769.1 748.939 1768.42 748.258 1768.42 747.416V745.723C1768.42 744.881 1769.1 744.2 1769.94 744.2V744.2C1770.78 744.2 1771.46 743.518 1771.46 742.677V741.998C1771.46 741.157 1770.78 740.475 1769.94 740.475V740.475C1769.1 740.475 1768.42 739.793 1768.42 738.952V737.259C1768.42 736.417 1769.1 735.735 1769.94 735.735V735.735C1770.78 735.735 1771.46 735.054 1771.46 734.212V733.534C1771.46 732.693 1770.78 732.011 1769.94 732.011V732.011C1769.1 732.011 1768.42 731.329 1768.42 730.488V728.794C1768.42 727.953 1769.1 727.271 1769.94 727.271V727.271C1770.78 727.271 1771.46 726.589 1771.46 725.748V725.07C1771.46 724.229 1770.78 723.547 1769.94 723.547V723.547C1769.1 723.547 1768.42 722.865 1768.42 722.024V720.33C1768.42 719.489 1769.1 718.807 1769.94 718.807V718.807C1770.78 718.807 1771.46 718.125 1771.46 717.284V716.606C1771.46 715.765 1770.78 715.083 1769.94 715.083V715.083C1769.1 715.083 1768.42 714.401 1768.42 713.56V711.866C1768.42 711.025 1769.1 710.343 1769.94 710.343V710.343C1770.78 710.343 1771.46 709.661 1771.46 708.82V706.788C1771.46 705.946 1770.78 705.265 1769.94 705.265V705.265C1769.1 705.265 1768.42 704.583 1768.42 703.742V702.048C1768.42 701.207 1769.1 700.525 1769.94 700.525V700.525C1770.78 700.525 1771.46 699.843 1771.46 699.002V698.324C1771.46 697.482 1770.78 696.8 1769.94 696.8V696.8C1769.1 696.8 1768.42 696.119 1768.42 695.277V693.584C1768.42 692.742 1769.1 692.061 1769.94 692.061V692.061C1770.78 692.061 1771.46 691.379 1771.46 690.537V689.859C1771.46 689.018 1770.78 688.336 1769.94 688.336V688.336C1769.1 688.336 1768.42 687.654 1768.42 686.813V685.12C1768.42 684.278 1769.1 683.596 1769.94 683.596V683.596C1770.78 683.596 1771.46 682.915 1771.46 682.073V681.395C1771.46 680.554 1770.78 679.872 1769.94 679.872V679.872C1769.1 679.872 1768.42 679.19 1768.42 678.349V672.931C1768.42 672.09 1769.1 671.408 1769.94 671.408V671.408C1770.78 671.408 1771.46 670.726 1771.46 669.885V668.869C1771.46 667.466 1770.33 666.33 1768.92 666.33H1764.02C1762.71 666.33 1761.65 665.269 1761.65 663.96V663.402C1761.65 662.401 1762.46 661.59 1763.46 661.59V661.59C1764.95 661.59 1765.8 659.893 1764.92 658.697L1752.78 642.337C1751.33 640.392 1749.05 639.244 1746.63 639.244H1746.42C1742.31 639.244 1738.97 635.91 1738.97 631.796V631.796V631.796C1738.97 631.048 1738.3 630.174 1738.3 629.426V609.958C1738.3 609.304 1737.77 608.774 1737.11 608.774V608.774C1736.46 608.774 1735.93 609.304 1735.93 609.958V629.479C1735.93 630.198 1735.25 631.077 1735.25 631.796V631.796V631.796C1735.25 635.91 1731.91 639.244 1727.8 639.244H1727.59C1725.17 639.244 1722.89 640.392 1721.45 642.338L1708.63 659.601C1708.02 660.423 1708.61 661.59 1709.63 661.59V661.59C1710.32 661.59 1710.88 662.148 1710.88 662.836V663.96C1710.88 665.269 1709.82 666.33 1708.51 666.33H1703.6C1702.2 666.33 1701.07 667.466 1701.07 668.869V669.547C1701.07 670.575 1701.9 671.408 1702.93 671.408V671.408C1703.96 671.408 1704.79 672.242 1704.79 673.27V678.011C1704.79 679.039 1703.96 679.872 1702.93 679.872V679.872C1701.9 679.872 1701.07 680.706 1701.07 681.734V681.734C1701.07 682.762 1701.9 683.596 1702.93 683.596V683.596C1703.96 683.596 1704.79 684.43 1704.79 685.458V686.475C1704.79 687.503 1703.96 688.336 1702.93 688.336V688.336C1701.9 688.336 1701.07 689.17 1701.07 690.198V690.198C1701.07 691.227 1701.9 692.061 1702.93 692.061V692.061C1703.96 692.061 1704.79 692.894 1704.79 693.922V694.939C1704.79 695.967 1703.96 696.8 1702.93 696.8V696.8C1701.9 696.8 1701.07 697.634 1701.07 698.663V698.663C1701.07 699.691 1701.9 700.525 1702.93 700.525V700.525C1703.96 700.525 1704.79 701.358 1704.79 702.386V703.403C1704.79 704.431 1703.96 705.265 1702.93 705.265V705.265C1701.9 705.265 1701.07 706.099 1701.07 707.127V707.127C1701.07 708.155 1701.9 708.989 1702.93 708.989V708.989C1703.96 708.989 1704.79 709.822 1704.79 710.85V711.867C1704.79 712.895 1703.96 713.729 1702.93 713.729V713.729C1701.9 713.729 1701.07 714.563 1701.07 715.591V715.591C1701.07 716.619 1701.9 717.453 1702.93 717.453V717.453C1703.96 717.453 1704.79 718.286 1704.79 719.314V720.331C1704.79 721.359 1703.96 722.193 1702.93 722.193V722.193C1701.9 722.193 1701.07 723.027 1701.07 724.055V724.055C1701.07 725.083 1701.9 725.917 1702.93 725.917V725.917C1703.96 725.917 1704.79 726.75 1704.79 727.779V728.795C1704.79 729.824 1703.96 730.657 1702.93 730.657V730.657C1701.9 730.657 1701.07 731.491 1701.07 732.519V732.519C1701.07 733.547 1701.9 734.381 1702.93 734.381V734.381C1703.96 734.381 1704.79 735.215 1704.79 736.243V737.26C1704.79 738.288 1703.96 739.121 1702.93 739.121V739.121C1701.9 739.121 1701.07 739.955 1701.07 740.983V740.983C1701.07 742.011 1701.9 742.845 1702.93 742.845V742.845C1703.96 742.845 1704.79 743.679 1704.79 744.707V745.724C1704.79 746.752 1703.96 747.585 1702.93 747.585V747.585C1701.9 747.585 1701.07 748.419 1701.07 749.447V749.447C1701.07 750.475 1701.9 751.309 1702.93 751.309V751.309C1703.96 751.309 1704.79 752.143 1704.79 753.171V754.188C1704.79 755.216 1703.96 756.049 1702.93 756.049V756.049C1701.9 756.049 1701.07 756.883 1701.07 757.911V757.911C1701.07 758.94 1701.9 759.774 1702.93 759.774V759.774C1703.96 759.774 1704.79 760.607 1704.79 761.635V762.652C1704.79 763.68 1703.96 764.513 1702.93 764.513V764.513C1701.9 764.513 1701.07 765.347 1701.07 766.376V766.376C1701.07 767.404 1701.9 768.238 1702.93 768.238V768.238C1703.96 768.238 1704.79 769.071 1704.79 770.099V771.116C1704.79 772.144 1703.96 772.978 1702.93 772.978V772.978C1701.9 772.978 1701.07 773.812 1701.07 774.84V774.84C1701.07 775.868 1701.9 776.702 1702.93 776.702V776.702C1703.96 776.702 1704.79 777.535 1704.79 778.563V779.58C1704.79 780.608 1703.96 781.442 1702.93 781.442V781.442C1701.9 781.442 1701.07 782.276 1701.07 783.304V783.304C1701.07 784.332 1701.9 785.166 1702.93 785.166V785.166C1703.96 785.166 1704.79 785.999 1704.79 787.027V788.044C1704.79 789.072 1703.96 789.906 1702.93 789.906V789.906C1701.9 789.906 1701.07 790.74 1701.07 791.768V791.768C1701.07 792.796 1701.9 793.63 1702.93 793.63H1704.28C1704.56 793.63 1704.79 793.857 1704.79 794.138V794.138C1704.79 794.418 1704.56 794.646 1704.28 794.646H1686.51C1684.08 794.646 1682.11 792.675 1682.11 790.244V790.244V786.52V781.78V778.056V773.316V769.592V764.852V761.128V756.388V752.664V747.924V744.2V739.46V735.735V730.996V727.271V722.531V718.807V714.067V710.343V705.603V701.879V697.139V693.415V689.013V685.289V680.549V676.825V672.085V668.361V663.621V659.897V655.496V651.771V647.031V643.307V638.567V634.843V630.103V626.379V621.639V617.915V613.175V609.451V604.711V600.987V596.247V592.522V587.783V584.058V579.318V575.594V570.854V567.13V562.39V558.666V553.926L1681.94 546.635C1681.84 542.468 1679.17 538.799 1675.23 537.429L1665.15 533.922C1661.86 532.777 1658.42 535.22 1658.42 538.705V540.251C1658.42 542.194 1656.85 543.769 1654.9 543.769V543.769C1652.93 543.769 1651.35 542.15 1651.39 540.18L1651.83 518.22C1651.92 513.558 1648.78 509.449 1644.26 508.317L1622.87 502.969C1616.86 501.466 1610.94 505.732 1610.47 511.908L1607.31 553.249L1606.98 557.989L1606.64 561.713L1606.3 566.453L1605.96 570.177L1605.62 574.917L1605.28 578.641L1604.94 583.381L1604.61 587.105L1604.27 591.845L1603.93 595.57L1603.59 600.309L1603.25 604.034L1602.91 608.774L1602.58 612.498L1602.24 617.238L1601.9 620.962L1601.56 625.702L1601.22 629.426L1600.88 634.166L1600.55 637.89L1600.21 642.63L1599.87 646.354L1599.85 646.618C1599.65 649.465 1598.24 652.09 1595.97 653.831L1594.23 655.173C1592 656.887 1590.61 659.465 1590.39 662.267V662.267L1590.05 665.991L1589.71 670.731L1589.38 674.455L1589.04 679.195L1588.7 682.919L1588.36 687.659L1588.02 691.383L1587.68 695.785V695.785C1587.68 696.72 1586.93 697.478 1585.99 697.478H1558.08C1552.56 697.478 1548.08 701.955 1548.08 707.478V746.063C1548.08 748.961 1545.74 751.309 1542.84 751.309V751.309C1539.94 751.309 1537.59 753.658 1537.59 756.555V860.668C1537.59 864.594 1534.41 867.776 1530.49 867.776V867.776C1526.56 867.776 1523.38 864.594 1523.38 860.668V444.569C1523.38 443.073 1522.17 441.861 1520.67 441.861V441.861C1519.17 441.861 1517.96 440.649 1517.96 439.153V402.092C1517.96 396.569 1513.49 392.092 1507.96 392.092H1450.46C1444.93 392.092 1440.46 396.569 1440.46 402.092V439.492C1440.46 440.987 1439.24 442.2 1437.75 442.2V442.2C1436.25 442.2 1435.04 443.412 1435.04 444.907V625.196C1435.04 627.906 1432.84 630.103 1430.13 630.103H1426.24C1425.68 630.103 1425.23 630.558 1425.23 631.119V631.458C1425.23 631.832 1424.92 632.135 1424.55 632.135V632.135C1424.18 632.135 1423.87 632.438 1423.87 632.811V636.536C1423.87 636.91 1424.18 637.213 1424.55 637.213V637.213C1424.92 637.213 1425.23 637.516 1425.23 637.89V638.229C1425.23 638.603 1424.92 638.906 1424.55 638.906V638.906C1424.18 638.906 1423.87 639.209 1423.87 639.583V643.307C1423.87 643.681 1424.18 643.984 1424.55 643.984V643.984C1424.92 643.984 1425.23 644.287 1425.23 644.661V645C1425.23 645.374 1424.92 645.677 1424.55 645.677V645.677C1424.18 645.677 1423.87 645.98 1423.87 646.354V650.079C1423.87 650.453 1424.18 650.756 1424.55 650.756V650.756C1424.92 650.756 1425.23 651.059 1425.23 651.432V651.772C1425.23 652.145 1424.92 652.448 1424.55 652.448V652.448C1424.18 652.448 1423.87 652.752 1423.87 653.125V656.85C1423.87 657.224 1424.18 657.527 1424.55 657.527V657.527C1424.92 657.527 1425.23 657.83 1425.23 658.204V658.543C1425.23 658.917 1424.92 659.22 1424.55 659.22V659.22C1424.18 659.22 1423.87 659.523 1423.87 659.897V663.621C1423.87 663.995 1424.18 664.298 1424.55 664.298V664.298C1424.92 664.298 1425.23 664.601 1425.23 664.975V665.314C1425.23 665.688 1424.92 665.991 1424.55 665.991V665.991C1424.18 665.991 1423.87 666.294 1423.87 666.668V670.393C1423.87 670.766 1424.18 671.07 1424.55 671.07V671.07C1424.92 671.07 1425.23 671.373 1425.23 671.746V672.085C1425.23 672.459 1424.92 672.762 1424.55 672.762V672.762C1424.18 672.762 1423.87 673.065 1423.87 673.439V677.164C1423.87 677.538 1424.18 677.841 1424.55 677.841V677.841C1424.92 677.841 1425.23 678.144 1425.23 678.518V678.857C1425.23 679.231 1424.92 679.534 1424.55 679.534V679.534C1424.18 679.534 1423.87 679.837 1423.87 680.211V683.935C1423.87 684.309 1424.18 684.612 1424.55 684.612V684.612C1424.92 684.612 1425.23 684.915 1425.23 685.289V685.628C1425.23 686.002 1424.92 686.305 1424.55 686.305V686.305C1424.18 686.305 1423.87 686.608 1423.87 686.982V690.707C1423.87 691.08 1424.18 691.383 1424.55 691.383V691.383C1424.92 691.383 1425.23 691.686 1425.23 692.06V692.399C1425.23 692.773 1424.92 693.076 1424.55 693.076V693.076C1424.18 693.076 1423.87 693.379 1423.87 693.753V697.478C1423.87 697.852 1424.18 698.155 1424.55 698.155V698.155C1424.92 698.155 1425.23 698.458 1425.23 698.832V699.171C1425.23 699.545 1424.92 699.848 1424.55 699.848V699.848C1424.18 699.848 1423.87 700.151 1423.87 700.524V704.249C1423.87 704.623 1424.18 704.926 1424.55 704.926V704.926C1424.92 704.926 1425.23 705.229 1425.23 705.603V705.942C1425.23 706.316 1424.92 706.619 1424.55 706.619V706.619C1424.18 706.619 1423.87 706.922 1423.87 707.296V711.02C1423.87 711.394 1424.18 711.697 1424.55 711.697V711.697C1424.92 711.697 1425.23 712 1425.23 712.374V712.713C1425.23 713.087 1424.92 713.39 1424.55 713.39V713.39C1424.18 713.39 1423.87 713.693 1423.87 714.067V717.792C1423.87 718.166 1424.18 718.469 1424.55 718.469V718.469C1424.92 718.469 1425.23 718.772 1425.23 719.146V719.485C1425.23 719.858 1424.92 720.161 1424.55 720.161V720.161C1424.18 720.161 1423.87 720.465 1423.87 720.838V724.563C1423.87 724.937 1424.18 725.24 1424.55 725.24V725.24C1424.92 725.24 1425.23 725.543 1425.23 725.917V726.256C1425.23 726.63 1424.92 726.933 1424.55 726.933V726.933C1424.18 726.933 1423.87 727.236 1423.87 727.61V731.334C1423.87 731.708 1424.18 732.011 1424.55 732.011V732.011C1424.92 732.011 1425.23 732.314 1425.23 732.688V739.798C1425.23 740.172 1424.92 740.475 1424.55 740.475V740.475C1424.18 740.475 1423.87 740.778 1423.87 741.152V744.877C1423.87 745.251 1424.18 745.554 1424.55 745.554V745.554C1424.92 745.554 1425.23 745.857 1425.23 746.231V746.57C1425.23 746.944 1424.92 747.247 1424.55 747.247V747.247C1424.18 747.247 1423.87 747.55 1423.87 747.924V748.77C1423.87 749.612 1423.19 750.294 1422.35 750.294H1411.2C1405.67 750.294 1401.2 745.817 1401.2 740.294V648.906C1401.2 643.383 1396.72 638.906 1391.2 638.906H1351.63C1346.11 638.906 1341.63 643.383 1341.63 648.906V702.051C1341.63 706.818 1337.76 710.682 1333 710.682H1326.4C1325.28 710.682 1324.37 709.772 1324.37 708.65V708.65C1324.37 707.528 1323.46 706.619 1322.34 706.619H1320.81C1318.85 706.619 1317.26 705.028 1317.26 703.065V575.933V432.042C1317.26 430.546 1316.05 429.334 1314.55 429.334V429.334C1313.06 429.334 1311.84 428.122 1311.84 426.626V353C1311.84 347.477 1307.37 343 1301.84 343H1228.09C1222.57 343 1218.09 347.477 1218.09 353V426.627C1218.09 428.122 1216.88 429.334 1215.39 429.334V429.334C1213.89 429.334 1212.68 430.546 1212.68 432.042V790.247C1212.68 793.798 1209.8 796.677 1206.25 796.677V796.677C1202.7 796.677 1199.82 793.798 1199.82 790.247V661.771C1199.82 656.248 1195.34 651.771 1189.82 651.771H1187.14C1181.62 651.771 1177.14 647.294 1177.14 641.771V591.167C1177.14 589.111 1175.47 587.444 1173.42 587.444V587.444C1171.36 587.444 1169.69 585.777 1169.69 583.721V568.327C1169.69 562.805 1165.22 558.327 1159.69 558.327H1074.1C1068.57 558.327 1064.1 562.805 1064.1 568.327V583.721C1064.1 585.777 1062.43 587.444 1060.37 587.444V587.444C1058.32 587.444 1056.65 589.111 1056.65 591.167V811.392C1056.65 816.915 1052.17 821.392 1046.65 821.392H1042.28C1036.76 821.392 1032.28 816.915 1032.28 811.392V680.054C1032.28 674.531 1027.81 670.054 1022.28 670.054H952.592C947.069 670.054 942.592 674.531 942.592 680.054V755.714C942.592 761.135 938.198 765.529 932.777 765.529V765.529C927.356 765.529 922.962 769.924 922.962 775.344V852.542C922.962 855.72 920.386 858.296 917.208 858.296V858.296C914.03 858.296 911.454 855.72 911.454 852.542V590.83V586.427C911.454 585.119 910.394 584.058 909.085 584.058H907.732C907.171 584.058 906.716 583.604 906.716 583.043V583.043C906.716 582.482 907.171 582.027 907.732 582.027H909.085C910.394 582.027 911.454 580.966 911.454 579.658V577.625C911.454 576.316 910.394 575.256 909.085 575.256H907.732C907.171 575.256 906.716 574.801 906.716 574.24V574.24C906.716 573.679 907.171 573.224 907.732 573.224H909.085C910.394 573.224 911.454 572.164 911.454 570.855V568.822C911.454 567.514 910.394 566.453 909.085 566.453H907.732C907.171 566.453 906.716 565.998 906.716 565.437V565.437C906.716 564.876 907.171 564.422 907.732 564.422H909.085C910.394 564.422 911.454 563.361 911.454 562.052V560.019C911.454 558.711 910.394 557.65 909.085 557.65H907.393C907.019 557.65 906.716 557.347 906.716 556.973V556.973C906.716 556.599 907.019 556.296 907.393 556.296H909.254C910.656 556.296 911.793 555.159 911.793 553.758V552.063C911.793 550.661 910.656 549.525 909.254 549.525H907.732C907.171 549.525 906.716 549.07 906.716 548.509V548.509C906.716 547.948 907.171 547.493 907.732 547.493H909.254C910.656 547.493 911.793 546.357 911.793 544.955V543.26C911.793 541.858 910.656 540.722 909.254 540.722H907.732C907.171 540.722 906.716 540.267 906.716 539.706V539.706C906.716 539.145 907.171 538.691 907.732 538.691H909.254C910.656 538.691 911.793 537.554 911.793 536.152V534.458C911.793 533.056 910.656 531.919 909.254 531.919H907.732C907.171 531.919 906.716 531.465 906.716 530.904V530.904C906.716 530.343 907.171 529.888 907.732 529.888H909.254C910.656 529.888 911.793 528.751 911.793 527.349V509.407C911.793 506.12 910.142 503.081 907.676 500.908C897.537 491.978 883.32 472.9 883.024 446.601V445.924V445.076C883.024 443.488 881.736 442.2 880.147 442.2H879.133C878.104 442.2 877.271 443.033 877.271 444.062V444.062C877.271 445.09 876.437 445.924 875.409 445.924H873.209C870.966 445.924 869.148 444.105 869.148 441.862V388.536C869.148 387.695 868.466 387.013 867.625 387.013V387.013C866.784 387.013 866.102 387.695 866.102 388.536V445.416C866.102 445.884 865.723 446.262 865.255 446.262V446.262C864.788 446.262 864.409 445.884 864.409 445.416V444.4C864.409 443.372 863.576 442.538 862.547 442.538H860.179C859.151 442.538 858.317 443.372 858.317 444.4V444.4C858.317 445.429 857.484 446.262 856.455 446.262H849.349C848.32 446.262 847.487 445.429 847.487 444.4V444.4C847.487 443.372 846.653 442.538 845.625 442.538H844.441C842.758 442.538 841.395 443.902 841.395 445.584V446.262C841.395 472.941 834.035 492.257 825.469 501.354C823.177 503.788 821.426 506.842 821.426 510.185V523.624C821.426 523.718 821.502 523.794 821.595 523.794V523.794C821.689 523.794 821.764 523.87 821.764 523.963V527.519C821.764 529.201 823.128 530.565 824.81 530.565H826.841C827.402 530.565 827.857 531.02 827.857 531.581V531.581C827.857 532.142 827.402 532.596 826.841 532.596H824.81C823.128 532.596 821.764 533.96 821.764 535.643V536.322C821.764 538.004 823.128 539.368 824.81 539.368H826.841C827.402 539.368 827.857 539.822 827.857 540.383V540.383C827.857 540.944 827.402 541.399 826.841 541.399H824.641C822.865 541.399 821.426 542.839 821.426 544.614V544.955C821.426 546.731 822.865 548.17 824.641 548.17H827.179C827.553 548.17 827.857 548.474 827.857 548.848V548.848C827.857 549.222 827.553 549.525 827.179 549.525H824.641C822.865 549.525 821.426 550.964 821.426 552.74V553.081C821.426 554.856 822.865 556.296 824.641 556.296H826.841C827.402 556.296 827.857 556.751 827.857 557.312V557.312C827.857 557.873 827.402 558.327 826.841 558.327H824.641C822.865 558.327 821.426 559.767 821.426 561.543V561.883C821.426 563.659 822.865 565.099 824.641 565.099H826.841C827.402 565.099 827.857 565.553 827.857 566.114V566.114C827.857 566.675 827.402 567.13 826.841 567.13H824.641C822.865 567.13 821.426 568.57 821.426 570.345V570.686C821.426 572.462 822.865 573.901 824.641 573.901H826.841C827.402 573.901 827.857 574.356 827.857 574.917V574.917C827.857 575.478 827.402 575.933 826.841 575.933H824.641C822.865 575.933 821.426 577.372 821.426 579.148V579.489C821.426 581.265 822.865 582.704 824.641 582.704H826.841C827.402 582.704 827.857 583.159 827.857 583.72V583.72C827.857 584.281 827.402 584.735 826.841 584.735H824.472C822.603 584.735 821.087 586.251 821.087 588.12V721.519C821.087 726.753 816.845 730.996 811.611 730.996V730.996C806.377 730.996 802.134 735.238 802.134 740.472V797.864C802.134 800.761 799.785 803.11 796.888 803.11V803.11C793.991 803.11 791.642 805.459 791.642 808.356V861.193C791.642 863.345 789.213 864.474 787.062 864.393V864.393C786.931 864.388 786.839 864.381 786.709 864.362C786.587 864.345 786.464 864.328 786.34 864.31C782.393 863.758 779.458 860.414 779.458 856.429V734.134C779.458 730.169 777.115 726.579 773.486 724.982L771.306 724.022C771.102 723.932 770.881 723.886 770.658 723.886V723.886H770.151C768.749 723.886 767.612 722.749 767.612 721.346V719.992C767.612 719.338 767.081 718.807 766.427 718.807V718.807C765.773 718.807 765.243 719.338 765.243 719.992V719.992C765.243 720.646 764.712 721.177 764.058 721.177H763.915C763.34 721.177 762.873 721.643 762.873 722.218V722.218C762.873 722.773 762.438 723.23 761.884 723.258L758.021 723.451C756.978 723.503 756.104 722.672 756.104 721.628V721.628C756.104 720.937 755.714 720.305 755.096 719.995L754.181 719.538C753.666 719.281 753.096 719.155 752.52 719.172L732.721 719.763C731.606 719.796 730.72 720.709 730.72 721.824V721.824C730.72 722.963 729.797 723.886 728.659 723.886H728.351C727.043 723.886 725.982 724.946 725.982 726.255V748.758C725.982 754.281 721.505 758.758 715.982 758.758H698.414C692.891 758.758 688.414 754.281 688.414 748.758V590.49C688.414 588.06 686.444 586.09 684.014 586.09V586.09C681.584 586.09 679.614 584.12 679.614 581.69V552.415C679.614 546.892 675.137 542.415 669.614 542.415H654.57C651.392 542.415 648.815 539.838 648.815 536.659V536.659C648.815 533.48 646.238 530.904 643.059 530.904H639.172C634.03 530.904 629.861 526.735 629.861 521.593V521.593C629.861 516.451 625.693 512.283 620.551 512.283H563.032C557.51 512.283 553.032 516.76 553.032 522.283V532.415C553.032 537.938 548.555 542.415 543.032 542.415H524.449C518.926 542.415 514.449 546.892 514.449 552.415V844.233C514.449 849.756 509.972 854.233 504.449 854.233H503.465C497.942 854.233 493.465 858.71 493.465 864.233V873.873C493.465 879.294 489.07 883.688 483.65 883.688V883.688C478.229 883.688 473.834 879.294 473.834 873.873V799.906C473.834 794.383 469.357 789.906 463.834 789.906H453.374C447.851 789.906 443.374 785.429 443.374 779.906V759.475C443.374 759.243 443.243 759.031 443.035 758.927V758.927C442.828 758.823 442.697 758.611 442.697 758.379V754.834C442.697 753.427 442.23 752.06 441.368 750.947L436.666 744.871C435.31 743.119 434.574 740.966 434.574 738.75V732.77C434.574 731.851 434.209 730.969 433.559 730.318V730.318C432.908 729.668 432.543 728.786 432.543 727.867V713.221C432.543 712.94 432.316 712.713 432.035 712.713V712.713C431.755 712.713 431.528 712.94 431.528 713.221V728.106C431.528 728.872 431.223 729.607 430.682 730.149V730.149C430.14 730.691 429.836 731.426 429.836 732.192V739.694C429.836 741.745 429.205 743.747 428.029 745.427L423.807 751.46C423.105 752.464 422.728 753.659 422.728 754.885V756.86C422.728 757.623 422.347 758.335 421.713 758.758V758.758C421.078 759.181 420.697 759.893 420.697 760.655V761.524C420.697 762.749 420.055 763.883 419.005 764.513L418.588 764.764C417.797 765.239 417.313 766.094 417.313 767.017V767.017C417.313 767.978 416.788 768.863 415.944 769.323L415.451 769.592C414.304 770.218 413.59 771.421 413.59 772.728V803.757C413.59 807.586 410.294 810.583 406.482 810.22V810.22V810.22C403.118 810.22 400.39 807.492 400.39 804.128V742.35C400.39 736.827 395.913 732.35 390.39 732.35H368.76C363.238 732.35 358.76 736.827 358.76 742.35V770.087C358.76 775.61 354.283 780.087 348.76 780.087H342.361C336.838 780.087 332.361 784.565 332.361 790.087V810.39C332.361 812.166 330.921 813.605 329.146 813.605V813.605C327.37 813.605 325.93 815.045 325.93 816.821V854.742C325.93 856.144 324.794 857.28 323.392 857.28V857.28C321.99 857.28 320.854 856.144 320.854 854.742V838.658C320.854 836.789 319.338 835.274 317.469 835.274V835.274C315.6 835.274 314.085 833.758 314.085 831.889V660.078C314.085 654.556 309.607 650.078 304.085 650.078H256.209C213.902 650.078 179.719 679.872 179.719 722.193V746.049C179.719 751.572 175.241 756.049 169.719 756.049H165.842C153.658 756.049 143.843 777.04 143.843 788.552V828.321C143.843 833.843 139.365 838.321 133.843 838.321H117.967C112.444 838.321 107.967 833.843 107.967 828.321V790.765C107.967 785.242 103.489 780.765 97.9666 780.765H93.9364C88.4135 780.765 83.9364 785.242 83.9364 790.765V877.765C83.9364 880.663 81.5877 883.011 78.6904 883.011V883.011C75.7931 883.011 73.4443 880.663 73.4443 877.765V829.009C73.4443 827.42 72.1563 826.132 70.5675 826.132V826.132C68.9786 826.132 67.6906 824.844 67.6906 823.255V790.765C67.6906 785.242 63.2135 780.765 57.6906 780.765H56.3681C50.8452 780.765 46.3681 776.287 46.3681 770.765V735.24C46.3681 729.717 41.8909 725.24 36.3681 725.24H10C4.47716 725.24 0 729.717 0 735.24V937C0 942.523 4.47715 947 10 947H2480C2485.52 947 2490 942.523 2490 937V559.525C2490 554.002 2485.52 549.525 2480 549.525H2461.57ZM2081.15 741.322C2081.15 741.976 2080.62 742.507 2079.96 742.507H2077.76V742.507C2077.58 742.507 2077.43 742.355 2077.43 742.168V741.322C2077.43 740.667 2077.96 740.137 2078.61 740.137H2079.96C2080.62 740.137 2081.15 740.667 2081.15 741.322V741.322ZM2081.15 735.566C2081.15 736.221 2080.62 736.751 2079.96 736.751H2078.61C2077.96 736.751 2077.43 736.221 2077.43 735.566V735.566C2077.43 734.912 2077.96 734.381 2078.61 734.381H2079.96C2080.62 734.381 2081.15 734.912 2081.15 735.566V735.566ZM2081.15 729.472C2081.15 730.126 2080.62 730.657 2079.96 730.657H2078.61C2077.96 730.657 2077.43 730.126 2077.43 729.472V729.472C2077.43 728.818 2077.96 728.287 2078.61 728.287H2079.96C2080.62 728.287 2081.15 728.818 2081.15 729.472V729.472ZM2081.15 723.378C2081.15 724.032 2080.62 724.563 2079.96 724.563H2078.61C2077.96 724.563 2077.43 724.032 2077.43 723.378V723.378C2077.43 722.723 2077.96 722.193 2078.61 722.193H2079.96C2080.62 722.193 2081.15 722.723 2081.15 723.378V723.378ZM2081.15 717.284C2081.15 717.938 2080.62 718.469 2079.96 718.469H2078.61C2077.96 718.469 2077.43 717.938 2077.43 717.284V717.284C2077.43 716.629 2077.96 716.099 2078.61 716.099H2079.96C2080.62 716.099 2081.15 716.629 2081.15 717.284V717.284ZM2081.15 711.189C2081.15 711.844 2080.62 712.374 2079.96 712.374H2078.61C2077.96 712.374 2077.43 711.844 2077.43 711.189V711.189C2077.43 710.535 2077.96 710.005 2078.61 710.005H2079.96C2080.62 710.005 2081.15 710.535 2081.15 711.189V711.189ZM2081.15 705.434C2081.15 706.088 2080.62 706.619 2079.96 706.619H2078.61C2077.96 706.619 2077.43 706.088 2077.43 705.434V705.434C2077.43 704.779 2077.96 704.249 2078.61 704.249H2079.96C2080.62 704.249 2081.15 704.779 2081.15 705.434V705.434Z" fill="url(#paint0_linear_763_144)"/><path opacity="0.2" d="M1605.51 619.869C1719.59 505.787 1719.63 320.784 1605.6 206.653C1491.57 92.5217 1306.64 92.4814 1192.56 206.563C1078.48 320.644 1078.44 505.647 1192.47 619.778C1306.5 733.91 1491.43 733.95 1605.51 619.869Z" fill="url(#paint1_linear_763_144)"/><defs><linearGradient id="paint0_linear_763_144" x1="2001" y1="-7" x2="2001" y2="1097" gradientUnits="userSpaceOnUse"><stop stop-color="#F4A984"/><stop offset="1" stop-color="#F4A984" stop-opacity="0"/></linearGradient><linearGradient id="paint1_linear_763_144" x1="1192.58" y1="108.532" x2="1192.66" y2="464.265" gradientUnits="userSpaceOnUse"><stop stop-color="white"/><stop offset="1" stop-color="white" stop-opacity="0"/></linearGradient></defs></svg>