<svg width="234" height="442" viewBox="0 0 234 442" fill="none" xmlns="http://www.w3.org/2000/svg"><path d="M73.4381 75.7411H78.9824V442.347H73.4381V75.7411Z" fill="#0C5E59"/><path d="M37.6076 44.141C51.141 44.141 63.9012 53.8394 72.7946 62.7619C66.8012 54.2273 58.4878 43.947 52.1077 41.8134C41.281 38.3219 32.1942 40.0677 32.1942 40.0677C32.1942 40.0677 42.4409 25.714 57.5211 32.5029C64.2878 35.4124 69.8945 44.9169 73.9545 54.0334C71.6345 45.4988 70.0879 35.4124 71.4412 26.1019C75.1146 2.82579 101.215 0.886108 101.215 0.886108C101.215 0.886108 86.7147 21.0588 84.008 44.9169C83.6213 48.0203 83.4279 51.1239 83.2346 54.0334C85.5546 40.2617 90.9681 23.7744 104.115 15.0458C136.788 -6.67861 157.282 31.7271 157.282 31.7271C157.282 31.7271 138.528 20.089 113.975 32.5029C94.6414 42.2013 86.328 63.3438 83.6213 71.6844C86.908 65.2835 100.248 41.4254 121.902 37.74C154.382 32.3089 162.695 73.6241 162.695 73.6241C162.695 73.6241 144.135 58.6886 121.128 59.6584C103.341 60.4343 90.388 67.8051 84.008 73.6241C87.2947 72.6543 94.8347 70.9086 103.535 70.9086C132.342 70.5206 138.335 109.12 138.335 109.12L83.6213 75.5638C85.9413 80.025 90.7747 89.3355 93.4814 95.9304C97.1548 104.853 94.8347 124.638 94.8347 124.638C94.8347 124.638 85.9413 109.508 83.428 99.6158C80.9146 90.1114 81.4947 80.219 81.8813 75.5638L44.761 115.715C44.761 115.715 35.6743 91.2752 63.5145 79.4431C67.1879 77.8914 70.4745 76.5336 72.9879 75.5638C66.2211 76.5336 58.1011 79.2492 49.7877 84.6803C33.5475 95.1546 23.3008 109.508 23.3008 109.508C23.3008 109.508 13.2474 79.8311 37.9943 68.193C46.1143 64.3137 55.3944 64.8956 63.3211 66.6413C57.3277 63.1499 49.5943 60.6283 40.1209 61.7921C17.6941 64.5076 11.5074 80.6069 11.5074 80.6069C11.5074 80.6069 5.12732 43.947 37.6076 44.141Z" fill="url(#paint0_linear_759_142)"/><path d="M231.375 418.59C228.988 407.607 225.05 397.221 219.8 387.671C219.084 386.358 218.249 384.925 217.414 383.612C211.328 373.465 203.81 364.392 195.099 356.513C194.025 355.438 192.832 354.483 191.639 353.528C182.331 345.769 171.711 339.442 160.256 334.905C158.824 334.308 157.392 333.831 155.96 333.353C144.505 329.294 132.095 327.026 119.327 326.787C118.611 326.787 117.776 326.787 117.06 326.787C116.344 326.787 115.508 326.787 114.792 326.787C101.905 327.026 89.6145 329.294 78.1591 333.353C76.7272 333.831 75.2953 334.428 73.8633 334.905C62.408 339.442 51.7879 345.769 42.4804 353.528C41.2871 354.483 40.0938 355.558 39.0199 356.513C30.309 364.392 22.6721 373.465 16.7058 383.612C15.8705 384.925 15.1545 386.358 14.3192 387.671C9.06884 397.221 5.13108 407.607 2.74454 418.59C2.38656 420.142 2.14788 421.694 1.7899 423.246C0.596634 429.931 0 436.736 0 443.66H234C234 436.736 233.403 429.812 232.21 423.246C231.971 421.694 231.733 420.142 231.375 418.59Z" fill="url(#paint1_linear_759_142)"/><path fill-rule="evenodd" clip-rule="evenodd" d="M114.793 326.668V443.66H119.327V326.668H117.06H114.793ZM73.8635 334.905L102.979 443.779H107.633L78.04 333.353C77.696 333.478 77.3438 333.604 76.9855 333.731L76.9854 333.731L76.9853 333.731L76.9852 333.731L76.9852 333.731L76.9851 333.731L76.985 333.731L76.9849 333.731C75.9764 334.089 74.92 334.465 73.8635 334.905ZM89.376 443.66L39.0201 356.513L39.3425 356.226L39.3427 356.226C40.3305 355.346 41.4055 354.389 42.4805 353.528L94.507 443.66H89.376ZM14.3194 387.671L70.4031 443.779H76.7274L16.5866 383.612C16.2286 384.268 15.8408 384.955 15.453 385.641C15.0652 386.328 14.6774 387.014 14.3194 387.671ZM37.2301 443.66L1.79004 423.246C1.98763 422.389 2.14888 421.533 2.3139 420.656L2.31392 420.656C2.44786 419.944 2.5843 419.219 2.74468 418.471L46.299 443.66H37.2301ZM126.367 443.779H131.021L160.137 334.905C158.705 334.308 157.273 333.831 155.841 333.353L126.367 443.779ZM144.744 443.779H139.493L191.639 353.648C192.832 354.603 194.026 355.558 195.1 356.632L144.744 443.779ZM157.273 443.779H163.597L219.681 387.671C218.965 386.358 218.13 384.925 217.294 383.612L157.273 443.779ZM196.89 443.779H187.821L231.375 418.709C231.733 420.261 232.091 421.813 232.33 423.365L196.89 443.779Z" fill="url(#paint2_linear_759_142)"/><path d="M65.373 328.941C54.4039 328.941 50.2904 319.339 50.2904 305.965C50.2904 292.59 46.5197 281.616 31.7799 280.93C12.584 280.245 14.298 298.763 14.298 321.397C14.298 350.203 4.01441 331.685 -10.3825 347.803C-22.7228 361.52 -6.95461 385.869 -2.15563 393.07H59.8883C61.945 389.298 67.0867 380.039 72.9141 368.722C85.9399 344.716 76.3421 328.941 65.373 328.941Z" fill="url(#paint3_linear_759_142)"/><path opacity="0.2" fill-rule="evenodd" clip-rule="evenodd" d="M35.893 333.399H32.8081V376.407L19.849 359.121L17.3809 360.973L32.8081 381.551V393.07H35.893V360.576L48.9655 344.356L46.5639 342.418L35.893 355.659V333.399Z" fill="white"/><path d="M78.0558 393.413H-13.8105V444.511H78.0558V393.413Z" fill="white"/><defs><linearGradient id="paint0_linear_759_142" x1="86.8476" y1="-39.5562" x2="86.8476" y2="124.638" gradientUnits="userSpaceOnUse"><stop stop-color="#D3D86C"/><stop offset="1" stop-color="#82A637"/></linearGradient><linearGradient id="paint1_linear_759_142" x1="117" y1="288.593" x2="117" y2="443.66" gradientUnits="userSpaceOnUse"><stop stop-color="#D3D86C"/><stop offset="1" stop-color="#82A637"/></linearGradient><linearGradient id="paint2_linear_759_142" x1="210.075" y1="326.397" x2="210.075" y2="597.894" gradientUnits="userSpaceOnUse"><stop stop-color="#084F15" stop-opacity="0"/><stop offset="1" stop-color="#084F15"/></linearGradient><linearGradient id="paint3_linear_759_142" x1="32.0952" y1="280.912" x2="32.0952" y2="415.859" gradientUnits="userSpaceOnUse"><stop offset="0.422311" stop-color="#2CA77F"/><stop offset="1" stop-color="#1B8877"/></linearGradient></defs></svg>