<svg xmlns="http://www.w3.org/2000/svg" xmlns:xlink="http://www.w3.org/1999/xlink"><defs>
<linearGradient id="paint0_linear_523_86" x1="237.764" y1="0.781219" x2="288.316" y2="121.884" gradientUnits="userSpaceOnUse">
<stop stop-color="#F7A58D"/>
<stop offset="0.926161" stop-color="white"/>
</linearGradient>

<linearGradient id="paint0_linear_480_424" x1="398.931" y1="-40.6308" x2="398.931" y2="297.04" gradientUnits="userSpaceOnUse">
<stop stop-color="#F4A984"/>
<stop offset="1" stop-color="#EE4D47"/>
</linearGradient>
<linearGradient id="paint1_linear_480_424" x1="294.868" y1="-288.354" x2="294.868" y2="296.573" gradientUnits="userSpaceOnUse">
<stop stop-color="#F4A984"/>
<stop offset="0.560769" stop-color="#EE4D47"/>
</linearGradient>
</defs><symbol id="arrow" viewBox="0 0 30 13">
  <path d="M23.8885 12.3549L29.5 6.17743L28.5 5.07657V5.00384H28.4339L23.8885 -6.10352e-05L22.4086 1.34634L25.731 5.00384L0 5.00384L0 7.00384L26.0464 7.00384L22.4086 11.0085L23.8885 12.3549Z"/>
</symbol><symbol id="fb" viewBox="0 0 36 36">
<circle cx="18" cy="18" r="18"/>
<path d="M19.37 28.4882V18.2429H22.2041L22.5796 14.7123H19.37L19.3749 12.9452C19.3749 12.0244 19.4625 11.531 20.7879 11.531H22.5596V8H19.7251C16.3205 8 15.1222 9.71271 15.1222 12.593V14.7127H13V18.2433H15.1222V28.4882H19.37Z" fill="white"/>
</symbol><symbol id="ig" viewBox="0 0 36 36">
<circle cx="18" cy="18" r="18"/>
<path d="M18.0018 13.8978C15.7316 13.8978 13.9005 15.7293 13.9005 18C13.9005 20.2707 15.7316 22.1022 18.0018 22.1022C20.2719 22.1022 22.1031 20.2707 22.1031 18C22.1031 15.7293 20.2719 13.8978 18.0018 13.8978ZM18.0018 20.667C16.5347 20.667 15.3354 19.4709 15.3354 18C15.3354 16.5291 16.5312 15.333 18.0018 15.333C19.4724 15.333 20.6682 16.5291 20.6682 18C20.6682 19.4709 19.4688 20.667 18.0018 20.667ZM23.2274 13.73C23.2274 14.262 22.7991 14.6868 22.2708 14.6868C21.739 14.6868 21.3142 14.2584 21.3142 13.73C21.3142 13.2016 21.7426 12.7732 22.2708 12.7732C22.7991 12.7732 23.2274 13.2016 23.2274 13.73ZM25.9438 14.7011C25.8831 13.4194 25.5904 12.2841 24.6516 11.3487C23.7165 10.4133 22.5814 10.1205 21.2999 10.0562C19.9793 9.98126 16.0207 9.98126 14.7001 10.0562C13.4222 10.1169 12.2871 10.4097 11.3484 11.3451C10.4096 12.2805 10.1205 13.4158 10.0562 14.6975C9.98126 16.0185 9.98126 19.9779 10.0562 21.2989C10.1169 22.5806 10.4096 23.7159 11.3484 24.6513C12.2871 25.5867 13.4186 25.8795 14.7001 25.9438C16.0207 26.0187 19.9793 26.0187 21.2999 25.9438C22.5814 25.8831 23.7165 25.5903 24.6516 24.6513C25.5868 23.7159 25.8795 22.5806 25.9438 21.2989C26.0187 19.9779 26.0187 16.0221 25.9438 14.7011ZM24.2376 22.7163C23.9592 23.416 23.4202 23.9551 22.717 24.2372C21.664 24.6549 19.1654 24.5585 18.0018 24.5585C16.8381 24.5585 14.336 24.6513 13.2866 24.2372C12.5869 23.9587 12.048 23.4196 11.766 22.7163C11.3484 21.6631 11.4447 19.1639 11.4447 18C11.4447 16.8361 11.3519 14.3334 11.766 13.2837C12.0444 12.584 12.5834 12.0449 13.2866 11.7628C14.3395 11.3451 16.8381 11.4415 18.0018 11.4415C19.1654 11.4415 21.6676 11.3487 22.717 11.7628C23.4166 12.0413 23.9556 12.5804 24.2376 13.2837C24.6552 14.3369 24.5588 16.8361 24.5588 18C24.5588 19.1639 24.6552 21.6666 24.2376 22.7163Z" fill="white"/>
</symbol><symbol id="logo" viewBox="0 0 212 50">
  <path d="M79.992 41V40.68L81.304 40.36C82.1787 40.168 82.616 39.6346 82.616 38.76V20.52H79.896C79.1067 20.52 78.5413 20.7333 78.2 21.16C77.8587 21.5653 77.496 22.1306 77.112 22.856L75.96 25.096H75.64L75.8 19.88H94.264L94.392 25.096H94.072L92.92 22.856C92.5573 22.1306 92.2053 21.5653 91.864 21.16C91.5227 20.7333 90.9573 20.52 90.168 20.52H87.448V38.76C87.448 39.6346 87.8853 40.168 88.76 40.36L90.072 40.68V41H79.992ZM95.7665 41V40.68L96.4385 40.456C96.8652 40.3066 97.1425 40.1146 97.2705 39.88C97.3985 39.624 97.4625 39.272 97.4625 38.824V22.088C97.4625 21.6613 97.3985 21.3306 97.2705 21.096C97.1638 20.84 96.9078 20.6373 96.5025 20.488L95.7665 20.2V19.88H104.919C107.436 19.88 109.367 20.36 110.711 21.32C112.055 22.2586 112.727 23.5706 112.727 25.256C112.727 26.1946 112.375 27.1333 111.671 28.072C110.967 29.0106 109.857 29.736 108.343 30.248L112.791 39.08C112.983 39.4426 113.196 39.7413 113.431 39.976C113.687 40.1893 114.017 40.3813 114.423 40.552L114.839 40.712V41H109.111L104.375 30.92H102.199V38.824C102.199 39.2293 102.263 39.56 102.391 39.816C102.519 40.072 102.785 40.264 103.191 40.392L103.959 40.68V41H95.7665ZM102.199 30.28H103.735C105.271 30.28 106.38 29.8746 107.063 29.064C107.745 28.232 108.087 27.0053 108.087 25.384C108.087 23.7413 107.767 22.5253 107.127 21.736C106.487 20.9253 105.409 20.52 103.895 20.52H102.199V30.28ZM115.725 41V40.68L116.525 40.392C116.951 40.2213 117.282 40.0186 117.517 39.784C117.751 39.528 117.943 39.176 118.093 38.728L124.685 19.816H127.405L133.901 38.856C134.071 39.3253 134.263 39.688 134.477 39.944C134.69 40.1786 135.021 40.3813 135.469 40.552L135.853 40.68V41H127.725V40.68L128.205 40.52C128.653 40.3493 128.919 40.1146 129.005 39.816C129.111 39.496 129.101 39.1226 128.973 38.696L127.469 34.088H120.365L118.829 38.6C118.679 39.0693 118.626 39.4426 118.669 39.72C118.733 39.9973 118.989 40.2213 119.437 40.392L120.141 40.68V41H115.725ZM120.589 33.448H127.277L124.045 23.496L120.589 33.448ZM136.86 41V40.68L137.436 40.488C137.863 40.3386 138.151 40.136 138.3 39.88C138.45 39.624 138.524 39.2826 138.524 38.856C138.546 37.576 138.556 36.2853 138.556 34.984C138.556 33.6826 138.556 32.3813 138.556 31.08V29.8C138.556 28.52 138.556 27.24 138.556 25.96C138.556 24.6586 138.546 23.368 138.524 22.088C138.524 21.6613 138.46 21.32 138.332 21.064C138.226 20.808 137.97 20.6053 137.564 20.456L136.86 20.2V19.88H152.348L152.572 25.192H152.252L150.428 21.832C150.215 21.4266 149.97 21.1066 149.692 20.872C149.415 20.6373 149.031 20.52 148.54 20.52H143.388C143.367 22.0346 143.356 23.5813 143.356 25.16C143.356 26.7386 143.356 28.3066 143.356 29.864H146.684C147.175 29.864 147.538 29.7573 147.772 29.544C148.007 29.3306 148.231 29.0213 148.444 28.616L149.116 27.4H149.436V33H149.116L148.412 31.784C148.199 31.4 147.975 31.0906 147.74 30.856C147.527 30.6213 147.175 30.504 146.684 30.504H143.356C143.356 31.9973 143.356 33.4266 143.356 34.792C143.356 36.136 143.367 37.4586 143.388 38.76C143.388 39.592 143.794 40.136 144.604 40.392L145.564 40.68V41H136.86ZM153.86 41V40.68L154.5 40.424C154.927 40.2746 155.204 40.072 155.332 39.816C155.482 39.56 155.556 39.2186 155.556 38.792V22.088C155.556 21.6613 155.492 21.32 155.364 21.064C155.236 20.808 154.948 20.6053 154.5 20.456L153.86 20.2V19.88H162.084V20.2L161.444 20.456C161.018 20.6053 160.73 20.808 160.58 21.064C160.452 21.32 160.388 21.6613 160.388 22.088V38.792C160.388 39.2186 160.452 39.56 160.58 39.816C160.73 40.0506 161.018 40.2533 161.444 40.424L162.084 40.68V41H153.86ZM173.962 41.576C171.893 41.576 170.015 41.16 168.33 40.328C166.666 39.4746 165.343 38.216 164.362 36.552C163.381 34.888 162.89 32.8506 162.89 30.44C162.89 28.6053 163.189 26.9946 163.786 25.608C164.383 24.2213 165.194 23.0586 166.218 22.12C167.263 21.1813 168.458 20.4773 169.802 20.008C171.167 19.5386 172.607 19.304 174.122 19.304C175.338 19.304 176.458 19.4426 177.482 19.72C178.506 19.9973 179.466 20.3813 180.362 20.872L180.49 24.808H180.17L178.57 22.248C178.357 21.8426 178.122 21.48 177.866 21.16C177.61 20.8186 177.29 20.5626 176.906 20.392C176.586 20.2426 176.266 20.136 175.946 20.072C175.647 19.9866 175.263 19.944 174.794 19.944C173.557 19.944 172.426 20.2746 171.402 20.936C170.399 21.5973 169.589 22.696 168.97 24.232C168.373 25.7466 168.074 27.8266 168.074 30.472C168.074 33.096 168.362 35.176 168.938 36.712C169.514 38.2266 170.293 39.3146 171.274 39.976C172.277 40.616 173.397 40.936 174.634 40.936C175.317 40.936 175.861 40.8933 176.266 40.808C176.671 40.7013 177.077 40.552 177.482 40.36C177.887 40.1893 178.197 39.944 178.41 39.624C178.623 39.2826 178.815 38.92 178.986 38.536L180.394 35.4H180.714L180.618 39.976C179.722 40.4453 178.719 40.8293 177.61 41.128C176.501 41.4266 175.285 41.576 173.962 41.576ZM192.064 41.576C190.762 41.576 189.504 41.3413 188.288 40.872C187.093 40.4026 186.016 39.7093 185.056 38.792C184.117 37.8533 183.37 36.6906 182.816 35.304C182.261 33.9173 181.984 32.296 181.984 30.44C181.984 28.6053 182.261 26.9946 182.816 25.608C183.37 24.2213 184.128 23.0693 185.088 22.152C186.048 21.2133 187.125 20.5093 188.32 20.04C189.536 19.5493 190.784 19.304 192.064 19.304C193.365 19.304 194.613 19.5386 195.808 20.008C197.024 20.456 198.101 21.1493 199.04 22.088C200 23.0053 200.757 24.168 201.312 25.576C201.866 26.9626 202.144 28.584 202.144 30.44C202.144 32.2533 201.866 33.864 201.312 35.272C200.757 36.6586 200 37.8213 199.04 38.76C198.101 39.6773 197.024 40.3813 195.808 40.872C194.613 41.3413 193.365 41.576 192.064 41.576ZM192.064 40.904C193.237 40.904 194.186 40.5946 194.912 39.976C195.637 39.336 196.16 38.2586 196.48 36.744C196.821 35.208 196.992 33.1066 196.992 30.44C196.992 27.752 196.821 25.6506 196.48 24.136C196.16 22.6 195.637 21.5226 194.912 20.904C194.186 20.264 193.237 19.944 192.064 19.944C190.912 19.944 189.973 20.264 189.248 20.904C188.522 21.5226 187.989 22.6 187.648 24.136C187.328 25.6506 187.168 27.752 187.168 30.44C187.168 33.1066 187.328 35.208 187.648 36.744C187.989 38.2586 188.522 39.336 189.248 39.976C189.973 40.5946 190.912 40.904 192.064 40.904ZM206.488 41.48C205.72 41.48 205.069 41.2133 204.536 40.68C204.002 40.1466 203.736 39.5066 203.736 38.76C203.736 38.0133 204.002 37.3626 204.536 36.808C205.069 36.2533 205.72 35.976 206.488 35.976C207.256 35.976 207.906 36.2533 208.44 36.808C208.973 37.3626 209.24 38.0133 209.24 38.76C209.24 39.5066 208.973 40.1466 208.44 40.68C207.906 41.2133 207.256 41.48 206.488 41.48Z"/>
  <path opacity="0.4" d="M-1.90735e-06 17L16 17L16 1.90735e-06L-1.90735e-06 17Z"/>
  <path d="M47 17H16V50L47 17Z"/>
</symbol><symbol id="truck-secondary" viewBox="0 0 382 209"><g fill="none">
<path d="M379.072 166.983C377.14 158.134 373.951 149.766 369.7 142.071C369.12 141.013 368.443 139.859 367.767 138.801C362.839 130.625 356.752 123.315 349.699 116.967C348.829 116.101 347.863 115.331 346.897 114.562C339.36 108.31 330.76 103.212 321.485 99.5572C320.325 99.0762 319.166 98.6915 318.006 98.3068C308.73 95.0365 298.682 93.209 288.343 93.0166C287.763 93.0166 287.087 93.0166 286.507 93.0166C285.927 93.0166 285.251 93.0166 284.671 93.0166C274.236 93.209 264.284 95.0365 255.008 98.3068C253.848 98.6915 252.689 99.1724 251.529 99.5572C242.254 103.212 233.654 108.31 226.118 114.562C225.151 115.331 224.185 116.197 223.316 116.967C216.262 123.315 210.078 130.625 205.247 138.801C204.571 139.859 203.991 141.013 203.315 142.071C199.063 149.766 195.875 158.134 193.942 166.983C193.652 168.233 193.459 169.483 193.169 170.734C192.203 176.12 191.72 181.603 191.72 187.181H381.198C381.198 181.603 380.715 176.024 379.748 170.734C379.555 169.483 379.362 168.233 379.072 166.983Z" fill="#0F264C"/>
<path d="M14.627 173.478C14.627 192.983 25.857 208.742 39.6687 208.742H64.7104C78.522 208.742 89.623 192.854 89.623 173.478C89.623 153.973 78.3929 138.214 64.5813 138.214C64.3231 138.214 64.194 138.214 63.9359 138.214H39.6687C25.7279 138.214 14.627 154.102 14.627 173.478Z" fill="#402B2B"/>
<path d="M210.828 173.09C210.828 192.595 222.058 208.354 235.87 208.354H260.912C274.723 208.354 285.824 192.466 285.824 173.09C285.824 153.585 274.594 137.826 260.782 137.826C260.524 137.826 260.395 137.826 260.137 137.826H235.87C221.929 137.826 210.828 153.585 210.828 173.09Z" fill="#F48767"/>
<path d="M12.9492 170.12L113.761 169.861L102.144 163.015L25.8573 163.144L12.9492 170.12Z" fill="#402B2B"/>
<path d="M-82.1836 112.638L-82.0545 177.353L-0.217197 177.224L25.8571 163.145L102.144 163.015L125.637 176.966L292.151 176.578C294.862 176.578 297.056 174.382 297.056 171.67L296.927 111.863L-82.1836 112.638Z" fill="#F36F49"/>
<path d="M96.2075 127.363L226.837 127.105L226.579 8.65453C226.579 3.87517 222.707 0 217.802 0L95.8203 0.25836L96.2075 127.363Z" fill="#F48767"/>
<path d="M-107.483 127.88L96.0775 127.493L95.8194 0.387695L-99.0928 0.775195C-103.869 0.775195 -107.741 4.65034 -107.741 9.55887L-107.483 127.88Z" fill="#F06A5B"/>
<path d="M194.307 173.09C194.307 192.595 183.206 208.354 169.394 208.354H144.482V196.47C135.317 196.47 127.83 186.007 127.83 173.09C127.83 160.173 135.188 149.71 144.352 149.71V137.826H169.265C183.077 137.955 194.178 153.714 194.307 173.09Z" fill="#F48767"/>
<path d="M123.83 173.349C123.83 189.366 132.995 202.284 144.354 202.154C155.713 202.154 164.749 189.237 164.749 173.22C164.749 157.203 155.584 144.285 144.225 144.415C132.995 144.415 123.83 157.332 123.83 173.349Z" fill="#F48767"/>
<path d="M144.352 192.337C151.839 192.337 157.777 183.811 157.777 173.219C157.777 162.627 151.71 154.231 144.223 154.231C136.737 154.231 130.799 162.756 130.799 173.348C130.799 183.94 136.866 192.337 144.352 192.337ZM144.352 161.981C148.741 161.981 152.355 167.019 152.355 173.219C152.355 179.419 148.741 184.586 144.352 184.586C139.964 184.586 136.349 179.549 136.349 173.348C136.349 167.019 139.835 161.981 144.352 161.981Z" fill="#F7A58D"/>
<path d="M144.352 208.483C158.164 208.483 169.265 192.595 169.265 173.219C169.265 153.844 158.035 137.956 144.223 137.956C130.412 137.956 119.311 153.844 119.311 173.219C119.311 192.595 130.67 208.613 144.352 208.483ZM144.223 144.414C155.582 144.414 164.747 157.331 164.747 173.219C164.747 189.237 155.711 202.154 144.352 202.154C132.993 202.154 123.828 189.237 123.828 173.349C123.828 157.331 132.993 144.414 144.223 144.414Z" fill="#F7A58D"/>
<path d="M140.867 173.22C140.867 170.507 142.416 168.44 144.223 168.44C146.03 168.44 147.579 170.636 147.708 173.22C147.708 175.932 146.16 177.999 144.352 177.999C142.416 178.128 140.867 175.932 140.867 173.22Z" fill="#F48766"/>
<path d="M313.319 76.5993C313.319 77.116 313.707 77.5035 314.094 77.6326C315.127 77.891 318.999 77.891 320.161 77.5035C320.677 77.3743 321.193 76.9868 321.193 76.3409C321.581 66.0072 321.581 55.9318 321.193 46.3731C321.193 45.7272 320.677 45.3397 320.161 45.2105C318.87 44.823 314.352 44.5646 312.932 45.0813C312.416 45.2105 312.029 45.7272 312.029 46.2439C311.77 56.061 312.158 66.1364 313.319 76.5993Z" fill="#F69276"/>
<path d="M306.996 85.7701C307.125 85.7701 307.254 85.7701 307.512 85.641L316.29 81.2491C318.355 80.2157 319.646 78.149 319.646 75.8239L319.517 43.4017C319.517 42.11 318.484 41.0767 317.193 41.0767H293.055C292.41 41.0767 292.022 41.5933 292.022 42.11C292.022 42.7559 292.539 43.1434 293.055 43.1434H317.193C317.322 43.1434 317.322 43.2726 317.322 43.2726L317.451 75.6947C317.451 77.2448 316.548 78.5365 315.257 79.1824L306.48 83.5742C305.963 83.8326 305.705 84.4784 305.963 84.9951C306.221 85.641 306.609 85.7701 306.996 85.7701Z" fill="#F69276"/>
<path d="M113.761 127.105C113.761 127.105 117.117 127.105 122.281 127.105H142.805C158.165 127.105 161.779 134.726 171.202 153.456L201.02 153.327C201.02 153.327 201.02 151.131 201.02 147.385L314.869 147.126C315.386 137.697 316.418 118.579 316.418 100.495C316.418 99.8494 316.418 99.3327 316.418 98.6868C316.418 93.52 315.515 87.8364 313.966 82.1528C307.899 59.9353 292.538 36.2968 286.213 27.6423C284.148 24.8005 282.341 22.3463 280.792 20.1504C276.403 14.3376 273.434 11.3667 267.884 11.3667L129.896 11.7542C127.057 11.7542 124.475 13.6918 123.701 16.4044C111.825 60.0645 113.632 93.2616 113.761 127.105ZM230.063 27.1256C229.934 26.4798 230.45 25.9631 231.096 25.9631L273.047 25.8339C275.5 25.8339 277.952 27.1257 279.501 29.3216C295.894 51.6683 302.478 72.0774 304.93 83.8321L307.512 96.2326C307.899 98.041 306.737 99.4619 304.93 99.4619H294.733C293.055 99.4619 291.248 98.6868 289.957 97.3951L269.046 77.3735C266.722 75.1776 263.624 73.8859 260.655 73.8859H235.614L230.063 27.1256Z" fill="#F36F49"/>
<path d="M208.376 82.541C209.28 86.6745 210.312 90.9372 211.216 95.4583C211.861 98.5584 214.572 100.754 217.67 100.883C258.459 102.304 292.279 102.434 316.417 100.625C316.417 99.9793 316.417 99.4626 316.417 98.8167C316.417 93.6498 315.513 87.9663 313.964 82.2827L208.376 82.541Z" fill="#F6977C"/>
<path d="M132.993 26.0926L174.945 25.9634C177.397 25.9634 179.592 27.2551 180.753 29.451C192.5 51.7978 194.952 72.2069 194.952 83.9616V96.3621C194.952 98.1705 193.532 99.5914 191.725 99.5914H181.528C179.85 99.5914 178.172 98.8164 177.139 97.5246L160.359 77.503C158.422 75.3071 155.712 73.8862 152.743 74.0154H127.701L131.703 27.2551C131.703 26.6092 132.219 26.0926 132.993 26.0926Z" fill="#F36F49"/>
<path d="M113.761 127.105C113.761 127.105 117.117 127.105 122.281 127.105H142.805C158.165 127.105 161.779 134.726 171.202 153.456L201.02 153.327C201.02 153.327 201.02 151.131 201.02 147.385L314.869 147.126C315.386 137.697 316.418 118.579 316.418 100.495C292.28 102.304 258.332 102.304 217.671 100.754C214.574 100.624 211.863 98.4285 211.217 95.3284C210.314 90.8074 209.281 86.4155 208.378 82.4112C202.827 58.7728 196.76 41.8512 188.757 23.5088C188.112 22.088 189.145 20.4087 190.694 20.4087L280.792 20.1504C276.403 14.3376 273.434 11.3667 267.884 11.3667L129.896 11.7542C127.057 11.7542 124.475 13.6918 123.701 16.4044C111.825 60.0645 113.632 93.2616 113.761 127.105ZM127.573 74.015L131.574 27.2548C131.574 26.609 132.22 26.0923 132.865 26.0923L174.817 25.9631C177.269 25.9631 179.463 27.2548 180.625 29.4508C192.372 51.7975 194.824 72.2066 194.824 83.9612V96.3618C194.824 98.1702 193.404 99.591 191.597 99.591H181.4C179.722 99.591 178.044 98.816 177.011 97.5243L160.23 77.5027C158.294 75.3067 155.584 73.8859 152.615 74.015H127.573Z" fill="#F7A58D"/>
<path d="M118.794 123.747C118.794 125.684 120.343 127.105 122.279 127.105H142.803C158.164 127.105 161.778 134.726 171.201 153.456L201.019 153.327C201.019 153.327 201.019 151.131 201.019 147.385L200.889 95.0705C200.889 69.1069 196.243 52.7021 183.98 26.7386C182.173 22.8634 178.171 20.4092 173.912 20.4092L129.508 20.5383C128.475 20.5383 127.701 21.1842 127.442 22.0884C118.665 55.4147 118.665 109.667 118.794 123.747ZM127.572 74.0155L131.573 27.2553C131.573 26.6094 132.218 26.0927 132.864 26.0927L174.815 25.9636C177.268 25.9636 179.462 27.2553 180.624 29.4512C192.37 51.7979 194.823 72.2071 194.823 83.9617V96.3622C194.823 98.1706 193.403 99.5915 191.596 99.5915H181.398C179.72 99.5915 178.042 98.8165 177.01 97.5247L160.229 77.5031C158.293 75.3072 155.582 73.8863 152.613 74.0155H127.572Z" fill="#F58A6B"/>
<path d="M133.252 27.6426L174.945 27.5135C176.752 27.5135 178.43 28.5468 179.334 30.0969C191.467 53.2187 193.403 73.757 193.403 83.8324V96.2329C193.403 97.1371 192.629 97.9122 191.725 97.9122H181.528C180.237 97.9122 179.075 97.3955 178.301 96.4913L161.52 76.4696C159.326 73.8862 156.099 72.3361 152.614 72.3361H129.379L133.252 27.6426ZM132.993 26.0926C132.348 26.0926 131.703 26.6092 131.703 27.2551L127.701 74.0154H152.743C155.712 74.0154 158.422 75.3071 160.359 77.503L177.139 97.5246C178.172 98.8164 179.85 99.5914 181.528 99.5914H191.725C193.532 99.5914 194.952 98.1705 194.952 96.3621V83.9616C194.952 72.2069 192.5 51.7978 180.753 29.451C179.592 27.2551 177.397 25.9634 174.945 25.9634L132.993 26.0926Z" fill="#F7A58D"/>
<path d="M200.892 122.713V147.385L245.941 147.256C245.425 140.797 244.263 134.597 242.327 128.784C241.552 126.459 239.616 124.78 237.163 124.392C227.224 123.23 214.574 122.713 200.892 122.713ZM292.023 147.256H314.354C314.741 141.83 315.128 133.047 315.515 123.1C310.094 123.359 305.06 123.875 300.542 124.521C298.09 124.909 296.153 126.588 295.379 128.913C293.572 134.597 292.539 140.797 292.023 147.256Z" fill="#F6977C"/>
<path d="M201.02 172.186L305.446 171.928C312.545 171.928 318.354 166.115 318.354 159.011V156.815C318.354 154.748 316.676 153.198 314.74 153.198L201.149 153.456L201.02 172.186Z" fill="#F6977C"/>
<path d="M181.787 172.186H201.02V153.457H171.461L174.688 166.503C175.462 169.861 178.431 172.186 181.787 172.186Z" fill="#F7A58D"/>
<path d="M135.833 103.855C140.222 103.984 148.741 104.888 148.741 107.988C148.741 111.088 141.255 112.122 135.188 112.122C129.121 112.122 128.475 108.763 127.959 107.342C127.572 105.921 127.185 103.725 135.833 103.855Z" fill="#F6977C"/>
<path d="M136.221 107.213C134.156 107.213 131.961 106.567 130.929 105.534C131.703 105.146 132.865 104.759 134.672 104.759C138.028 104.759 143.45 105.146 146.289 106.438C145.902 106.696 144.869 107.213 143.191 107.213C141.126 107.213 138.415 107.213 136.221 107.213Z" fill="#F47B58"/>
<path d="M144.869 109.667C145.644 109.667 146.031 109.797 146.16 109.926C143.837 110.959 139.577 111.347 137.512 111.347C134.543 111.347 132.477 111.347 131.832 110.701C132.348 110.313 133.51 109.667 134.672 109.667C136.221 109.797 143.837 109.667 144.869 109.667Z" fill="#F47B58"/>
<path d="M201.02 147.514C201.02 151.26 201.02 153.456 201.02 153.456L314.482 153.198C314.482 153.198 314.611 151.002 314.869 147.256L201.02 147.514Z" fill="#F58A6B"/>
<g opacity="0.2">
<path d="M249.942 121.421V146.093L288.021 145.964V121.292C288.021 118.321 285.311 115.996 281.954 115.996H255.88C252.653 116.125 249.942 118.58 249.942 121.421Z" fill="#F16036"/>
</g>
<path d="M300.8 145.189H308.803C310.868 145.189 312.676 143.51 312.676 141.314V137.31C312.676 135.243 310.998 133.435 308.803 133.435H300.8C298.735 133.435 296.928 135.114 296.928 137.31V141.314C296.928 143.51 298.735 145.189 300.8 145.189Z" fill="white"/>
<path d="M225.027 145.448H233.03C235.095 145.448 236.902 143.769 236.902 141.573V137.569C236.902 135.502 235.224 133.693 233.03 133.693H225.027C222.961 133.693 221.154 135.373 221.154 137.569V141.573C221.154 143.64 222.832 145.448 225.027 145.448Z" fill="white"/>
<path d="M173.395 76.858C173.395 77.3746 173.783 77.7622 174.17 77.8913C179.204 78.408 184.496 78.408 189.918 77.7622C190.563 77.633 190.951 77.2455 190.951 76.5996C191.338 66.2659 191.338 56.1905 190.951 46.6318C190.951 45.9859 190.434 45.5984 189.918 45.4693C184.367 44.8234 178.817 44.8234 173.008 45.4693C172.492 45.5984 172.105 46.1151 172.105 46.6318C171.717 56.3197 172.234 66.395 173.395 76.858Z" fill="#F7A58D"/>
<path d="M193.402 86.0289C193.789 86.0289 194.177 85.7706 194.306 85.3831C194.564 84.8664 194.306 84.2205 193.789 83.9622L185.012 79.6995C183.721 79.0536 182.818 77.6327 182.818 76.2118L182.688 43.7897C182.688 43.6605 182.818 43.6605 182.818 43.6605H188.239C188.884 43.6605 189.272 43.1438 189.272 42.6271C189.272 41.9813 188.755 41.5938 188.239 41.5938H182.818C181.527 41.5938 180.494 42.6271 180.494 43.9188L180.623 76.341C180.623 78.6661 181.914 80.7329 183.979 81.7663L192.757 86.0289C193.144 86.0289 193.273 86.0289 193.402 86.0289Z" fill="#F69276"/>
<path d="M252.604 173.716L289.134 173.636L289.11 162.657L252.58 162.736L252.604 173.716Z" fill="#F8B4A0"/>
<path opacity="0.6" d="M188.508 23.9C196.511 42.2424 202.449 59.1639 208.128 82.8023L313.716 82.544C307.65 60.3264 292.289 36.688 285.964 28.0335C283.899 25.1917 282.092 22.7374 280.543 20.5415L190.444 20.7999C188.895 20.929 187.862 22.4791 188.508 23.9Z" fill="url(#paint0_linear_523_86)"/>
<path d="M125.325 185.603C123.427 176.862 120.297 168.596 116.123 160.995C115.554 159.949 114.889 158.809 114.225 157.764C109.387 149.688 103.411 142.467 96.4854 136.196C95.6316 135.341 94.683 134.581 93.7343 133.821C86.3347 127.645 77.8916 122.61 68.7844 118.999C67.646 118.524 66.5077 118.144 65.3693 117.764C56.2621 114.534 46.396 112.729 36.2453 112.539C35.6761 112.539 35.012 112.539 34.4428 112.539C33.8736 112.539 33.2096 112.539 32.6404 112.539C22.3948 112.729 12.6236 114.534 3.51638 117.764C2.37798 118.144 1.2396 118.619 0.101208 118.999C-9.00596 122.61 -17.4491 127.645 -24.8487 133.821C-25.7973 134.581 -26.746 135.436 -27.5998 136.196C-34.525 142.467 -40.5965 149.688 -45.3398 157.764C-46.0039 158.809 -46.5731 159.949 -47.2371 160.995C-51.4113 168.596 -54.5418 176.862 -56.4392 185.603C-56.7237 186.838 -56.9135 188.073 -57.1981 189.308C-58.1468 194.629 -58.6211 200.044 -58.6211 205.555H127.412C127.412 200.044 126.938 194.534 125.989 189.308C125.799 188.073 125.609 186.838 125.325 185.603Z" fill="#FCDDD4"/>

</g></symbol><symbol id="truck" viewBox="0 0 600 395"><g fill="none">
<path d="M20.5576 327.492C20.5576 364.314 41.7634 394.064 67.8441 394.064H115.131C141.211 394.064 162.173 364.07 162.173 327.492C162.173 290.671 140.968 260.921 114.887 260.921C114.399 260.921 114.156 260.921 113.668 260.921H67.8441C41.5197 260.921 20.5576 290.915 20.5576 327.492Z" fill="#442B2B"/>
<path d="M391.05 326.761C391.05 363.582 412.256 393.332 438.336 393.332H485.623C511.704 393.332 532.666 363.339 532.666 326.761C532.666 289.939 511.46 260.189 485.379 260.189C484.892 260.189 484.648 260.189 484.16 260.189H438.336C412.012 260.189 391.05 289.939 391.05 326.761Z" fill="#402B2B"/>
<path d="M17.3887 321.152L207.753 320.665L185.816 307.74L41.7631 307.984L17.3887 321.152Z" fill="#442B2B"/>
<path d="M-162.251 212.638L-162.007 334.808L-7.47298 334.564L41.7635 307.984L185.817 307.74L230.178 334.076L544.609 333.345C549.728 333.345 553.871 329.199 553.871 324.078L553.628 211.175L-162.251 212.638Z" fill="#822626"/>
<path d="M174.604 240.437L421.274 239.95L420.786 16.338C420.786 7.31545 413.474 -0.00012207 404.212 -0.00012207L173.873 0.48761L174.604 240.437Z" fill="#EF5F53"/>
<path d="M-210.025 241.413L174.36 240.681L173.873 0.731537L-194.182 1.46306C-203.2 1.46306 -210.513 8.77857 -210.513 18.0449L-210.025 241.413Z" fill="#F39476"/>
<path d="M359.851 326.761C359.851 363.582 338.889 393.332 312.808 393.332H265.765V370.898C248.459 370.898 234.322 351.146 234.322 326.761C234.322 302.376 248.216 282.624 265.522 282.624V260.189H312.564C338.645 260.433 359.607 290.183 359.851 326.761Z" fill="#402B2B"/>
<path d="M226.766 327.249C226.766 357.486 244.072 381.871 265.521 381.627C286.971 381.627 304.033 357.242 304.033 327.005C304.033 296.767 286.727 272.382 265.277 272.626C244.072 272.626 226.766 297.011 226.766 327.249Z" fill="#4B2A2A"/>
<path opacity="0.32" d="M265.521 363.095C279.658 363.095 290.87 347 290.87 327.005C290.87 307.009 279.414 291.159 265.277 291.159C251.14 291.159 239.928 307.253 239.928 327.248C239.928 347.244 251.384 363.095 265.521 363.095ZM265.521 305.79C273.808 305.79 280.633 315.3 280.633 327.005C280.633 338.71 273.808 348.464 265.521 348.464C257.234 348.464 250.409 338.953 250.409 327.248C250.409 315.3 256.99 305.79 265.521 305.79Z" fill="#E14841"/>
<path d="M265.521 393.576C291.602 393.576 312.564 363.582 312.564 327.005C312.564 290.427 291.358 260.433 265.277 260.433C239.196 260.433 218.234 290.427 218.234 327.005C218.234 363.582 239.684 393.82 265.521 393.576ZM265.277 272.626C286.727 272.626 304.033 297.011 304.033 327.005C304.033 357.242 286.97 381.627 265.521 381.627C244.071 381.627 226.765 357.242 226.765 327.248C226.765 297.011 244.071 272.626 265.277 272.626Z" fill="#402B2B"/>
<path opacity="0.32" d="M258.94 327.005C258.94 321.884 261.865 317.982 265.278 317.982C268.69 317.982 271.615 322.128 271.859 327.005C271.859 332.126 268.934 336.027 265.522 336.027C261.865 336.271 258.94 332.126 258.94 327.005Z" fill="#E14841"/>
<path d="M584.584 144.604C584.584 145.579 585.315 146.311 586.046 146.555C587.996 147.042 595.308 147.042 597.502 146.311C598.477 146.067 599.452 145.335 599.452 144.116C600.183 124.608 600.183 105.588 599.452 87.5427C599.452 86.3234 598.477 85.5919 597.502 85.348C595.065 84.6165 586.534 84.1287 583.852 85.1041C582.877 85.348 582.146 86.3235 582.146 87.2989C581.659 105.832 582.39 124.852 584.584 144.604Z" fill="#CD2827"/>
<path d="M572.64 161.917C572.883 161.917 573.127 161.917 573.615 161.673L590.189 153.382C594.089 151.432 596.527 147.53 596.527 143.141L596.283 81.934C596.283 79.4955 594.333 77.5447 591.895 77.5447H546.315C545.096 77.5447 544.365 78.5201 544.365 79.4955C544.365 80.7148 545.34 81.4463 546.315 81.4463H591.895C592.139 81.4463 592.139 81.6902 592.139 81.6902L592.383 142.897C592.383 145.823 590.677 148.262 588.239 149.481L571.665 157.772C570.69 158.26 570.202 159.479 570.69 160.454C571.177 161.673 571.908 161.917 572.64 161.917Z" fill="#822626"/>
<path d="M207.753 239.95C207.753 239.95 214.091 239.95 223.841 239.95H262.596C291.602 239.95 298.427 254.337 316.22 289.695L372.525 289.451C372.525 289.451 372.525 285.306 372.525 278.234L587.508 277.747C588.483 259.945 590.433 223.855 590.433 189.716C590.433 188.497 590.433 187.522 590.433 186.302C590.433 176.548 588.727 165.819 585.802 155.089C574.346 113.147 545.34 68.5222 533.397 52.1841C529.497 46.8194 526.084 42.1863 523.159 38.0408C514.872 27.0675 509.266 21.4589 498.785 21.4589L238.222 22.1904C232.859 22.1904 227.984 25.8482 226.522 30.9691C204.097 113.391 207.51 176.061 207.753 239.95ZM427.368 51.2087C427.124 49.9895 428.099 49.0141 429.318 49.0141L508.535 48.7702C513.166 48.7702 517.797 51.2088 520.722 55.3542C551.677 97.5405 564.108 136.069 568.74 158.259L573.615 181.669C574.346 185.083 572.152 187.765 568.74 187.765H549.484C546.315 187.765 542.903 186.302 540.465 183.864L500.979 146.067C496.591 141.921 490.741 139.483 485.135 139.483H437.849L427.368 51.2087Z" fill="#CD2827"/>
<path d="M386.418 155.821C388.124 163.624 390.074 171.671 391.78 180.206C392.999 186.059 398.118 190.204 403.968 190.448C480.991 193.13 544.852 193.374 590.432 189.96C590.432 188.741 590.432 187.766 590.432 186.546C590.432 176.792 588.726 166.063 585.801 155.333L386.418 155.821Z" fill="#822626"/>
<path opacity="0.75" d="M244.072 49.2579L323.289 49.0141C327.92 49.0141 332.064 51.4526 334.257 55.5981C356.438 97.7844 361.069 136.313 361.069 158.503V181.913C361.069 185.327 358.388 188.009 354.976 188.009H335.72C332.551 188.009 329.382 186.546 327.432 184.108L295.746 146.311C292.089 142.165 286.971 139.483 281.365 139.727H234.078L241.634 51.4526C241.634 50.2333 242.609 49.2579 244.072 49.2579Z" fill="#402B2B"/>
<path d="M207.753 239.95C207.753 239.95 214.091 239.95 223.841 239.95H262.596C291.602 239.95 298.427 254.337 316.22 289.695L372.525 289.451C372.525 289.451 372.525 285.306 372.525 278.234L587.508 277.747C588.483 259.945 590.433 223.855 590.433 189.716C544.853 193.13 480.748 193.13 403.968 190.204C398.118 189.96 393 185.815 391.781 179.962C390.075 171.427 388.125 163.137 386.418 155.577C375.937 110.952 364.481 79.0078 349.369 44.3809C348.151 41.6986 350.1 38.5285 353.025 38.5285L523.159 38.0408C514.872 27.0675 509.266 21.4589 498.785 21.4589L238.222 22.1904C232.859 22.1904 227.984 25.8482 226.522 30.9691C204.097 113.391 207.51 176.061 207.753 239.95ZM233.834 139.727L241.39 51.4526C241.39 50.2333 242.609 49.258 243.828 49.258L323.045 49.0141C327.676 49.0141 331.82 51.4526 334.013 55.5981C356.194 97.7844 360.825 136.313 360.825 158.503V181.913C360.825 185.327 358.144 188.009 354.732 188.009H335.476C332.307 188.009 329.138 186.546 327.188 184.108L295.502 146.311C291.845 142.165 286.727 139.483 281.121 139.727H233.834Z" fill="url(#paint0_linear_480_424)"/>
<path d="M217.26 233.61C217.26 237.267 220.185 239.95 223.841 239.95H262.596C291.602 239.95 298.427 254.337 316.22 289.695L372.525 289.451C372.525 289.451 372.525 285.306 372.525 278.234L372.282 179.475C372.282 130.46 363.507 99.4914 340.351 50.4773C336.939 43.1618 329.383 38.5286 321.339 38.5286L237.491 38.7724C235.541 38.7724 234.078 39.9917 233.591 41.6986C217.016 104.612 217.016 207.03 217.26 233.61ZM233.835 139.727L241.391 51.4527C241.391 50.2334 242.609 49.258 243.828 49.258L323.045 49.0142C327.676 49.0142 331.82 51.4527 334.014 55.5982C356.194 97.7844 360.826 136.313 360.826 158.503V181.913C360.826 185.327 358.144 188.009 354.732 188.009H335.476C332.307 188.009 329.139 186.546 327.189 184.108L295.502 146.311C291.846 142.165 286.727 139.483 281.121 139.727H233.835Z" fill="url(#paint1_linear_480_424)"/>
<path d="M244.559 52.1841L323.289 51.9403C326.701 51.9403 329.87 53.8911 331.576 56.8173C354.488 100.467 358.144 139.239 358.144 158.259V181.669C358.144 183.376 356.682 184.839 354.976 184.839H335.72C333.282 184.839 331.089 183.864 329.626 182.157L297.939 144.36C293.796 139.483 287.702 136.557 281.121 136.557H237.247L244.559 52.1841ZM244.072 49.2579C242.853 49.2579 241.634 50.2333 241.634 51.4526L234.078 139.727H281.365C286.971 139.727 292.089 142.165 295.746 146.311L327.432 184.108C329.382 186.546 332.551 188.009 335.72 188.009H354.976C358.388 188.009 361.069 185.327 361.069 181.913V158.503C361.069 136.313 356.438 97.7844 334.257 55.5981C332.064 51.4526 327.92 49.0141 323.289 49.0141L244.072 49.2579Z" fill="#822626"/>
<path opacity="0.4" d="M372.281 231.659V278.234L457.348 277.991C456.373 265.798 454.18 254.093 450.523 243.12C449.061 238.73 445.405 235.56 440.774 234.829C422.005 232.634 398.118 231.659 372.281 231.659ZM544.365 277.991H586.533C587.264 267.749 587.995 251.167 588.727 232.39C578.489 232.878 568.983 233.853 560.452 235.073C555.821 235.804 552.165 238.974 550.703 243.364C547.29 254.093 545.34 265.798 544.365 277.991Z" fill="#CD2827"/>
<path d="M372.525 325.054L569.715 324.566C583.121 324.566 594.089 313.593 594.089 300.181V296.035C594.089 292.134 590.921 289.208 587.264 289.208L372.769 289.695L372.525 325.054Z" fill="#EE4D47"/>
<path d="M336.207 325.054H372.525V289.695H316.707L322.801 314.324C324.263 320.665 329.869 325.054 336.207 325.054Z" fill="#CD2827"/>
<path d="M249.434 196.057C257.721 196.3 273.808 198.007 273.808 203.86C273.808 209.712 259.671 211.663 248.215 211.663C236.759 211.663 235.54 205.323 234.565 202.641C233.834 199.958 233.103 195.813 249.434 196.057Z" fill="#CD2827"/>
<path d="M250.165 202.397C246.265 202.397 242.122 201.177 240.172 199.227C241.634 198.495 243.828 197.763 247.241 197.763C253.578 197.763 263.815 198.495 269.178 200.933C268.446 201.421 266.496 202.397 263.328 202.397C259.428 202.397 254.309 202.397 250.165 202.397Z" fill="#9B1616"/>
<path d="M266.496 207.03C267.959 207.03 268.69 207.274 268.934 207.517C264.546 209.468 256.503 210.2 252.603 210.2C246.997 210.2 243.097 210.2 241.878 208.981C242.853 208.249 245.047 207.03 247.24 207.03C250.165 207.274 264.546 207.03 266.496 207.03Z" fill="#9B1616"/>
<path d="M372.525 278.478C372.525 285.55 372.525 289.695 372.525 289.695L586.777 289.208C586.777 289.208 587.021 285.062 587.508 277.991L372.525 278.478Z" fill="#822626"/>
<g opacity="0.2">
<path d="M464.904 229.22V275.796L536.809 275.552V228.976C536.809 223.368 531.69 218.978 525.353 218.978H476.117C470.023 219.222 464.904 223.855 464.904 229.22Z" fill="#822626"/>
</g>
<path d="M560.939 274.089H576.051C579.951 274.089 583.364 270.919 583.364 266.773V259.214C583.364 255.312 580.195 251.898 576.051 251.898H560.939C557.039 251.898 553.627 255.069 553.627 259.214V266.773C553.627 270.919 557.039 274.089 560.939 274.089Z" fill="white"/>
<path d="M417.861 274.577H432.973C436.873 274.577 440.286 271.407 440.286 267.261V259.702C440.286 255.8 437.117 252.386 432.973 252.386H417.861C413.961 252.386 410.549 255.556 410.549 259.702V267.261C410.549 271.163 413.718 274.577 417.861 274.577Z" fill="white"/>
<path d="M320.363 145.091C320.363 146.067 321.094 146.798 321.825 147.042C331.332 148.018 341.325 148.018 351.562 146.798C352.781 146.555 353.512 145.823 353.512 144.604C354.244 125.096 354.244 106.075 353.512 88.0303C353.512 86.8111 352.537 86.0795 351.562 85.8357C341.081 84.6164 330.6 84.6164 319.632 85.8357C318.657 86.0795 317.926 87.0549 317.926 88.0303C317.194 106.319 318.169 125.339 320.363 145.091Z" fill="#CD2827"/>
<path d="M358.143 162.405C358.874 162.405 359.605 161.917 359.849 161.186C360.337 160.21 359.849 158.991 358.874 158.503L342.3 150.456C339.862 149.237 338.156 146.555 338.156 143.872L337.912 82.6655C337.912 82.4217 338.156 82.4217 338.156 82.4217H348.393C349.612 82.4217 350.343 81.4463 350.343 80.4709C350.343 79.2516 349.368 78.5201 348.393 78.5201H338.156C335.718 78.5201 333.769 80.4709 333.769 82.9094L334.012 144.116C334.012 148.505 336.45 152.407 340.35 154.358L356.924 162.405C357.656 162.405 357.899 162.405 358.143 162.405Z" fill="#822626"/>
<path d="M469.93 327.942L538.909 327.792L538.864 307.065L469.885 307.215L469.93 327.942Z" fill="white"/>
<path opacity="0.8" d="M348.9 45.1183C364.012 79.7452 375.225 111.69 385.949 156.314L585.333 155.827C573.877 113.884 544.871 69.2595 532.928 52.9215C529.028 47.5568 525.615 42.9236 522.69 38.7781L352.556 39.2659C349.631 39.5097 347.681 42.4359 348.9 45.1183Z" fill="#8E6362"/>

</g></symbol><symbol id="tw" viewBox="0 0 36 36">
<circle cx="18" cy="18" r="18"/>
<path fill-rule="evenodd" clip-rule="evenodd" d="M17.9095 14.6592L17.8699 14.0076C17.7511 12.3187 18.7938 10.7761 20.4438 10.1777C21.051 9.96492 22.0805 9.93832 22.7537 10.1245C23.0176 10.2043 23.5193 10.4702 23.8756 10.7096L24.5224 11.1485L25.2351 10.9224C25.6311 10.8027 26.1591 10.6032 26.3966 10.4702C26.621 10.3506 26.819 10.284 26.819 10.324C26.819 10.55 26.3307 11.3213 25.9215 11.7468C25.3671 12.3453 25.5255 12.3985 26.6475 11.9995C27.3206 11.7734 27.3338 11.7734 27.2018 12.0261C27.1226 12.1591 26.7134 12.6245 26.2778 13.0501C25.5387 13.7815 25.4991 13.8613 25.4991 14.473C25.4991 15.4172 25.0503 17.3853 24.6015 18.4624C23.77 20.4838 21.9881 22.5715 20.2062 23.6221C17.6984 25.0982 14.3589 25.4705 11.5475 24.6062C10.6103 24.3136 9 23.5689 9 23.436C9 23.396 9.48834 23.3428 10.0824 23.3296C11.3231 23.303 12.5638 22.9572 13.6197 22.3455L14.3326 21.92L13.5141 21.6407C12.3526 21.2417 11.3099 20.3242 11.0459 19.4598C10.9667 19.1805 10.9931 19.1672 11.7322 19.1672L12.4978 19.1539L11.851 18.8481C11.0855 18.4624 10.3859 17.8108 10.0427 17.1459C9.79192 16.6672 9.47521 15.457 9.5676 15.364C9.59394 15.3241 9.87117 15.4038 10.188 15.5102C11.0987 15.8427 11.2175 15.7629 10.6895 15.2044C9.69953 14.1937 9.39596 12.691 9.87117 11.2681L10.0956 10.6298L10.9667 11.4942C12.7486 13.2362 14.8473 14.2735 17.2496 14.5794L17.9095 14.6592Z" fill="white"/>
</symbol></svg>