<svg width="309" height="120" viewBox="0 0 309 120" fill="none" xmlns="http://www.w3.org/2000/svg">
<path d="M152.272 71.4829C150.702 64.2469 148.11 57.4043 144.655 51.1121C144.184 50.2469 143.634 49.3031 143.084 48.438C139.079 41.7526 134.132 35.775 128.399 30.584C127.692 29.8762 126.907 29.2469 126.121 28.6177C119.996 23.5054 113.007 19.3368 105.468 16.3481C104.525 15.9548 103.583 15.6402 102.64 15.3256C95.1015 12.6514 86.9342 11.1571 78.5313 10.9998C78.0602 10.9998 77.5105 10.9998 77.0393 10.9998C76.5681 10.9998 76.0184 10.9998 75.5472 10.9998C67.0658 11.1571 58.977 12.6514 51.438 15.3256C50.4957 15.6402 49.5533 16.0335 48.6109 16.3481C41.0719 19.3368 34.0826 23.5054 27.9572 28.6177C27.1719 29.2469 26.3865 29.9548 25.6798 30.584C19.947 35.775 14.921 41.7526 10.9944 48.438C10.4447 49.3031 9.97348 50.2469 9.42376 51.1121C5.96838 57.4043 3.37686 64.2469 1.80624 71.4829C1.57064 72.5054 1.41356 73.5279 1.17797 74.5503C0.392657 78.9548 0 83.438 0 87.9998H154C154 83.438 153.607 78.8762 152.822 74.5503C152.665 73.5279 152.508 72.5054 152.272 71.4829Z" fill="#F4F6D5"/>
<path d="M306.307 94.2592C303.86 82.9824 299.821 72.3185 294.436 62.5125C293.702 61.1642 292.845 59.6933 291.988 58.345C285.747 47.9262 278.036 38.6106 269.102 30.5207C268 29.4175 266.777 28.4369 265.553 27.4563C256.007 19.489 245.114 12.9926 233.365 8.33478C231.896 7.72191 230.428 7.23163 228.959 6.74133C217.21 2.57381 204.482 0.244904 191.387 -0.000244141C190.652 -0.000244141 189.796 -0.000244141 189.061 -0.000244141C188.327 -0.000244141 187.47 -0.000244141 186.736 -0.000244141C173.518 0.244904 160.912 2.57381 149.163 6.74133C147.695 7.23163 146.226 7.84448 144.757 8.33478C133.008 12.9926 122.116 19.489 112.57 27.4563C111.346 28.4369 110.122 29.5401 109.02 30.5207C100.086 38.6106 92.2534 47.9262 86.1341 58.345C85.2774 59.6933 84.5431 61.1642 83.6864 62.5125C78.3014 72.3185 74.2626 82.9824 71.8149 94.2592C71.4478 95.8527 71.203 97.4462 70.8358 99.0396C69.6119 105.904 69 112.89 69 120H309C309 112.89 308.388 105.781 307.164 99.0396C306.919 97.4462 306.675 95.8527 306.307 94.2592Z" fill="white"/>
</svg>
