<svg width="1285" height="91" viewBox="0 0 1285 91" fill="none" xmlns="http://www.w3.org/2000/svg"><path d="M1290 0H-6V95.58H1290V0Z" fill="url(#paint0_linear_482_0)"/><mask id="mask0_482_0" style="mask-type:alpha" maskUnits="userSpaceOnUse" x="-6" y="0" width="1296" height="96"><path d="M1290 0H-6V95.58H1290V0Z" fill="url(#paint1_linear_482_0)"/></mask><g mask="url(#mask0_482_0)"><path opacity="0.7" fill-rule="evenodd" clip-rule="evenodd" d="M544.791 38.0245C536.187 47.0856 527.408 53.2655 518.025 52.839C515.698 52.7332 513.829 52.2541 512.43 51.3656C511.001 50.458 510.13 49.1655 509.754 47.5993C509.386 46.0665 509.501 44.3131 509.938 42.4368C510.376 40.5533 511.154 38.4822 512.177 36.2816C515.923 28.2243 523.178 17.9915 530.203 8.08472L530.203 8.08434L530.204 8.08359C530.817 7.21849 531.429 6.35588 532.036 5.49741C535.834 0.129673 539.475 -5.08715 542.39 -9.78528C545.318 -14.5035 547.458 -18.6124 548.315 -21.7772C548.744 -23.3595 548.823 -24.6054 548.6 -25.5337C548.39 -26.4078 547.904 -27.0502 547.02 -27.484C546.086 -27.9427 544.656 -28.1902 542.564 -28.0707C540.484 -27.9519 537.837 -27.4762 534.533 -26.5752C528.026 -24.8006 520.777 -20.708 512.941 -14.8667C505.114 -9.03299 496.76 -1.50002 488.043 7.091C475.755 19.201 462.797 33.3603 449.618 47.7608L449.618 47.7612L449.617 47.762L449.615 47.7643C444.085 53.807 438.517 59.8921 432.942 65.886C414.111 86.1343 395.221 105.336 377.669 118.156C360.188 130.925 343.682 137.626 329.784 132.15C322.913 129.444 319.453 125.555 319.041 120.647C318.642 115.885 321.166 110.516 325.295 104.91C333.583 93.6537 348.982 80.6097 363.933 68.0835C364.469 67.634 365.005 67.1851 365.541 66.7369L365.607 66.6813L365.637 66.6563C372.548 60.8684 379.316 55.2003 385.23 49.8576C391.638 44.0691 396.992 38.7083 400.421 34.0358C402.136 31.6995 403.337 29.5802 403.96 27.7027C404.581 25.8312 404.607 24.2726 404.085 22.9786C403.564 21.6889 402.431 20.4973 400.399 19.4913C398.359 18.4807 395.474 17.6908 391.583 17.1919C379.21 15.6056 363.336 19.3376 345.656 26.592C328.006 33.8345 308.681 44.5338 289.457 56.7343C251.01 81.1343 213.063 111.475 189.872 131.969L188.548 130.471C211.797 109.925 249.828 79.5157 288.385 55.0457C307.663 42.8112 327.097 32.0455 344.897 24.7417C362.668 17.4499 378.938 13.5544 391.837 15.2081C395.843 15.7217 398.971 16.5518 401.287 17.6991C403.613 18.8509 405.182 20.3551 405.939 22.2295C406.694 24.0996 406.575 26.1733 405.858 28.3329C405.143 30.4864 403.812 32.7967 402.034 35.2192C398.477 40.0642 392.997 45.5371 386.571 51.3417C380.628 56.7101 373.833 62.4012 366.93 68.1816L366.928 68.1837L366.928 68.1839L366.905 68.2028C366.343 68.6735 365.78 69.1448 365.217 69.6165C350.198 82.2003 335.019 95.0763 326.905 106.095C322.832 111.626 320.699 116.483 321.034 120.48C321.357 124.33 324.022 127.731 330.517 130.29C343.348 135.344 359.04 129.287 376.49 116.541C393.869 103.847 412.644 84.7757 431.478 64.524C437.026 58.5583 442.58 52.4895 448.102 46.4551L448.102 46.4548C461.297 32.0364 474.312 17.8147 486.639 5.6665C495.387 -2.95497 503.815 -10.5589 511.745 -16.4702C519.666 -22.3738 527.149 -26.6344 534.007 -28.5048C537.386 -29.4263 540.181 -29.9378 542.449 -30.0674C544.705 -30.1963 546.529 -29.9533 547.902 -29.2792C549.325 -28.5803 550.197 -27.4477 550.545 -26.001C550.88 -24.6084 550.715 -22.9877 550.246 -21.2541C549.306 -17.787 547.028 -13.4668 544.09 -8.73081C541.139 -3.97471 537.465 1.28784 533.669 6.6526C533.113 7.43842 532.554 8.2262 531.995 9.01479L531.891 9.16188L531.869 9.19362C524.803 19.1604 517.655 29.243 513.99 37.1247C513.001 39.2525 512.282 41.1871 511.886 42.8901C511.488 44.6003 511.43 46.0141 511.699 47.1328C511.959 48.2181 512.532 49.0613 513.502 49.6772C514.502 50.3121 515.987 50.7443 518.115 50.841C526.552 51.2245 534.783 45.6594 543.341 36.6474C550.284 29.3357 557.277 19.9396 564.624 10.0675L564.624 10.0672L564.625 10.0666L564.629 10.0604L564.646 10.0379C566.317 7.7923 568.007 5.52218 569.718 3.24644C578.932 -9.00521 588.76 -21.3872 599.661 -30.7048C610.567 -40.0278 622.637 -46.36 636.33 -46.36V-44.36C623.293 -44.36 611.67 -38.3397 600.96 -29.1846C590.244 -20.024 580.53 -7.80228 571.317 4.44856C569.617 6.70898 567.933 8.97155 566.263 11.2157L566.261 11.2182L566.261 11.2188C558.91 21.0966 551.825 30.617 544.791 38.0245ZM930.118 -15.2794C928.124 -18.4052 924.504 -20.2562 918.241 -20.0605C905.784 -19.6712 893.887 -9.60942 882.226 5.69388C870.611 20.938 859.459 41.0667 848.413 61.0316L848.26 61.3074C837.288 81.1375 826.414 100.791 815.346 115.1C809.785 122.29 804.134 128.187 798.348 132.084C792.55 135.989 786.56 137.924 780.373 137.071C774.271 136.229 770.219 133.668 767.888 129.716C765.59 125.818 765.065 120.733 765.618 115.025C766.723 103.619 772.202 89.1029 777.757 74.9643C778.195 73.8483 778.634 72.7346 779.072 71.6248L779.099 71.5565L779.099 71.5561C784.229 58.5378 789.146 46.0638 790.686 36.5932C791.525 31.4324 791.318 27.3909 789.803 24.673C788.35 22.0665 785.546 20.44 780.51 20.44C775.557 20.44 770.739 22.6276 765.95 26.6128C761.156 30.6011 756.459 36.3349 751.774 43.2863C743.922 54.9377 736.209 69.8461 728.189 85.3502C726.632 88.3584 725.064 91.389 723.482 94.4225C713.765 113.046 703.496 131.763 691.981 145.826C680.48 159.872 667.568 169.48 652.53 169.48C645.101 169.48 640.24 167.546 637.625 163.821C635.041 160.141 634.879 155.019 636.059 149.196C637.246 143.339 639.839 136.537 643.074 129.287C645.814 123.146 649.036 116.636 652.291 110.061L652.292 110.06L652.292 110.06C652.882 108.867 653.474 107.673 654.063 106.477C661.782 90.8368 669.18 75.2067 670.674 63.1081C671.418 57.0806 670.671 52.1074 667.942 48.4586C665.223 44.8233 660.374 42.2894 652.431 41.495C626.854 38.9373 600.905 50.1279 578.778 65.3007C556.669 80.4613 538.518 99.5008 528.582 112.39L526.998 111.169C537.042 98.1392 555.341 78.9467 577.647 63.6513C599.935 48.3681 626.366 36.8786 652.63 39.505C660.886 40.3306 666.365 43.011 669.544 47.2606C672.712 51.4966 673.433 57.0788 672.659 63.3531C671.115 75.8583 663.528 91.8182 655.857 107.363C655.265 108.563 654.672 109.76 654.08 110.955L654.08 110.956C650.824 117.533 647.623 124.001 644.9 130.102C641.68 137.319 639.161 143.958 638.019 149.593C636.87 155.262 637.163 159.683 639.262 162.672C641.33 165.618 645.38 167.48 652.53 167.48C666.652 167.48 679.052 158.458 690.434 144.559C701.801 130.677 711.985 112.134 721.708 93.4974C723.282 90.4816 724.844 87.4629 726.396 84.4616L726.397 84.4604C734.415 68.96 742.193 53.925 750.116 42.1686C754.847 35.1476 759.668 29.2377 764.67 25.0753C769.677 20.9099 774.933 18.44 780.51 18.44C786.004 18.44 789.63 20.256 791.55 23.6991C793.407 27.0309 793.517 31.6463 792.66 36.9142C791.083 46.6109 786.085 59.2897 780.985 72.2244L780.985 72.2253C780.529 73.3807 780.073 74.5381 779.618 75.6956C774.035 89.9071 768.681 104.146 767.609 115.218C767.073 120.748 767.625 125.332 769.611 128.7C771.564 132.012 775.004 134.311 780.647 135.089C786.206 135.856 791.707 134.146 797.23 130.425C802.765 126.698 808.264 120.988 813.764 113.877C824.738 99.6891 835.552 80.1434 846.569 60.2331L846.663 60.0634C857.688 40.1358 868.913 19.8657 880.636 4.48172C892.313 -10.8431 904.716 -21.6388 918.179 -22.0595C924.876 -22.2688 929.305 -20.2723 931.804 -16.355C934.24 -12.5368 934.676 -7.12765 934.038 -0.885483C933.396 5.39218 931.642 12.7187 929.482 20.5261C928.401 24.4348 927.214 28.4774 926.008 32.5803L925.953 32.7654C924.764 36.811 923.558 40.915 922.413 45.021C920.088 53.3617 918.026 61.6792 916.89 69.4658C915.753 77.26 915.553 84.4581 916.908 90.5798C918.258 96.6769 921.141 101.682 926.178 105.184C931.238 108.702 938.581 110.78 948.99 110.78V112.78C938.339 112.78 930.546 110.656 925.037 106.827C919.506 102.982 916.391 97.4953 914.956 91.012C913.526 84.5534 913.757 77.0829 914.911 69.177C916.065 61.2636 918.155 52.8495 920.487 44.4839C921.632 40.3749 922.839 36.2699 924.024 32.2383L924.03 32.2159L924.089 32.0163C925.296 27.9109 926.478 23.8836 927.555 19.9928C929.71 12.2015 931.425 5.01123 932.048 -1.08892C932.676 -7.22456 932.175 -12.0543 930.118 -15.2794ZM1243.17 79.0927C1241.3 72.8591 1237.38 66.0441 1232.16 58.9613C1226.94 51.8687 1220.39 44.4546 1213.21 37.0209C1201.25 24.6325 1187.48 12.1379 1175.15 0.942249L1175.15 0.941975C1172.69 -1.29372 1170.28 -3.4776 1167.96 -5.5985C1160.97 -11.9774 1154.74 -17.7813 1149.94 -22.7252C1145.09 -27.7065 1141.82 -31.699 1140.61 -34.4702C1140 -35.8705 1140.04 -36.6724 1140.3 -37.1146C1140.55 -37.55 1141.23 -38.0367 1142.95 -38.2077C1146.36 -38.547 1152.62 -37.5174 1162.56 -34.6785L1163.11 -36.6015C1153.2 -39.4326 1146.59 -40.5799 1142.75 -40.1978C1140.85 -40.0081 1139.31 -39.4096 1138.56 -38.1094C1137.82 -36.8162 1138.1 -35.2324 1138.78 -33.6711C1140.15 -30.5191 1143.69 -26.2851 1148.5 -21.3312C1153.35 -16.34 1159.63 -10.5001 1166.61 -4.12153C1168.94 -1.99254 1171.35 0.197048 1173.82 2.43644C1186.15 13.6327 1199.86 26.0739 1211.77 38.4103C1218.92 45.8098 1225.41 53.1529 1230.55 60.1467C1235.71 67.1502 1239.48 73.7509 1241.25 79.6673C1242.15 82.6733 1242.68 85.0874 1242.88 86.9791C1243.07 88.8909 1242.92 90.1633 1242.57 90.9588C1242.26 91.6788 1241.77 92.042 1241.05 92.1711C1240.25 92.3146 1239.11 92.1701 1237.57 91.6467C1234.52 90.6041 1230.38 88.228 1225.34 84.8693C1220.31 81.5239 1214.46 77.2598 1207.97 72.499C1207.17 71.9098 1206.36 71.313 1205.54 70.7096C1193.11 61.5735 1178.6 50.9067 1163.45 41.6219C1147.32 31.7294 1130.4 23.3553 1114.43 20.0804C1106.53 18.459 1100.98 17.7758 1097.42 17.9668C1095.66 18.0614 1094.24 18.3757 1093.27 19.0248C1092.76 19.3618 1092.37 19.7983 1092.12 20.342C1091.88 20.8832 1091.83 21.4632 1091.9 22.0429C1092.04 23.1638 1092.66 24.3818 1093.54 25.6406C1094.44 26.9216 1095.68 28.3492 1097.2 29.9021C1100.22 33.0088 1104.42 36.706 1109.33 40.8587C1112.24 43.318 1115.41 45.9401 1118.74 48.702L1118.74 48.7062C1126.69 55.2956 1135.6 62.6811 1144.31 70.5537C1156.67 81.7258 1168.55 93.8095 1176.58 105.855C1178.59 108.866 1179.91 111.271 1180.64 113.144C1181.38 115.057 1181.43 116.224 1181.18 116.883C1180.98 117.42 1180.49 117.854 1179.29 118.009C1178.06 118.168 1176.3 117.992 1174.02 117.463C1169.47 116.409 1163.18 114.042 1155.56 110.788C1147.96 107.539 1139.11 103.433 1129.44 98.9261L1127.02 97.8021C1108.24 89.0471 1086.63 78.973 1065.46 70.8775C1043.39 62.4411 1021.69 56.1095 1004.09 55.7003C997.072 55.537 991.819 56.2336 988.125 57.7021C984.396 59.1847 982.177 61.4951 981.46 64.5296C980.761 67.4904 981.549 70.9184 983.292 74.5594C985.044 78.2199 987.824 82.2286 991.314 86.4189C1005.26 103.16 1031.03 123.393 1050.48 136.901L1051.62 135.259C1032.19 121.767 1006.61 101.662 992.851 85.1391C989.415 81.0134 986.748 77.1482 985.096 73.6959C983.434 70.2241 982.861 67.3003 983.407 64.9894C983.935 62.7521 985.569 60.8708 988.864 59.5606C992.195 58.2363 997.137 57.539 1004.05 57.6997C1021.28 58.1005 1042.71 64.3239 1064.74 72.7456C1085.85 80.815 1107.4 90.8621 1126.2 99.6238L1128.59 100.739C1138.26 105.243 1147.14 109.363 1154.78 112.627C1162.4 115.884 1168.83 118.314 1173.57 119.411C1175.92 119.958 1177.96 120.197 1179.54 119.993C1181.15 119.785 1182.5 119.078 1183.06 117.58C1183.57 116.205 1183.29 114.443 1182.5 112.418C1181.7 110.352 1180.29 107.809 1178.24 104.745C1170.07 92.4905 1158.05 80.2741 1145.66 69.07C1136.91 61.168 1127.95 53.735 1119.98 47.136L1119.98 47.1345L1119.98 47.1315C1116.65 44.3773 1113.51 41.7684 1110.62 39.3313C1105.71 35.1815 1101.58 31.538 1098.63 28.5065C1097.15 26.9903 1095.99 25.6493 1095.18 24.4924C1094.35 23.3133 1093.96 22.424 1093.88 21.7983C1093.85 21.5047 1093.89 21.3016 1093.95 21.1537C1094.02 21.0082 1094.14 20.8494 1094.38 20.6889C1094.9 20.3429 1095.88 20.0528 1097.53 19.9639C1100.81 19.7879 1106.14 20.421 1114.03 22.0396C1129.65 25.2446 1146.34 33.4756 1162.41 43.3268C1177.48 52.5661 1191.92 63.1864 1204.37 72.3304C1205.18 72.9305 1205.99 73.5244 1206.79 74.111C1213.27 78.8677 1219.16 83.1592 1224.23 86.5343C1229.28 89.896 1233.6 92.4052 1236.93 93.5395C1238.58 94.1045 1240.11 94.3714 1241.4 94.1399C1242.78 93.8941 1243.82 93.0961 1244.41 91.7595C1244.96 90.4984 1245.08 88.8186 1244.86 86.7738C1244.65 84.7088 1244.09 82.1617 1243.17 79.0927Z" fill="url(#paint2_linear_482_0)"/><path opacity="0.1" d="M382.158 33.4482C248.928 33.4482 226.558 77.701 -8.42969 77.701V147.42H1290V-1.62C1004.91 -1.62 1041.61 60.5844 796.032 60.5844C550.46 60.5844 497.535 33.4482 382.158 33.4482Z" fill="url(#paint3_linear_482_0)"/></g><defs><linearGradient id="paint0_linear_482_0" x1="319.869" y1="-280.214" x2="319.869" y2="188.717" gradientUnits="userSpaceOnUse"><stop offset="0.278352" stop-color="#EEEF99"/><stop offset="0.76976" stop-color="#B9D079"/></linearGradient><linearGradient id="paint1_linear_482_0" x1="319.869" y1="-280.214" x2="319.869" y2="188.717" gradientUnits="userSpaceOnUse"><stop offset="0.278352" stop-color="#EEEF99"/><stop offset="0.76976" stop-color="#B9D079"/></linearGradient><linearGradient id="paint2_linear_482_0" x1="716.755" y1="4.73681" x2="716.755" y2="217.053" gradientUnits="userSpaceOnUse"><stop stop-color="white"/><stop offset="1" stop-color="white" stop-opacity="0"/></linearGradient><linearGradient id="paint3_linear_482_0" x1="640.785" y1="-58.2258" x2="640.785" y2="151.992" gradientUnits="userSpaceOnUse"><stop offset="0.164151" stop-color="#82A637"/><stop offset="0.890649" stop-color="#1B8877"/></linearGradient></defs></svg>